<svg xmlns="http://www.w3.org/2000/svg" viewBox="0 0 512 512" id="rahul-gandhi">
  <path fill="#f6f6f6" d="M21.727 447.721a74.45 74.45 0 0 0 2.785-10.606 41.436 41.436 0 0 1 1.526-5.389 70.769 70.769 0 0 1 2.945-8.357 76.654 76.654 0 0 1 3.773-7.121 98.057 98.057 0 0 1 6.56-9.037 36.931 36.931 0 0 1 3.731-4.054c2.928-2.834 5.972-5.561 8.88-8.413a62.551 62.551 0 0 1 10.755-8.278 8.632 8.632 0 0 1 1.336-.82 2.044 2.044 0 0 0 1.319-2.074 8.307 8.307 0 0 1 1.17-.06c2.68-1.016 4.675-3.005 7.086-4.404a6.209 6.209 0 0 1 4.247.342 45.98 45.98 0 0 1 15.317 10.32 118.57 118.57 0 0 1 12.88 16.471c5.231 8.383 8.543 17.493 11.463 26.755 3.46 10.974 7.546 21.752 11.5 32.57 5.302 14.509 9.142 29.417 13.733 44.119a4.934 4.934 0 0 1 .296 1.698 1.192 1.192 0 0 1-.309.617h-.458a4.943 4.943 0 0 0-2.468-.212q-56.899-.018-113.798 0a4.945 4.945 0 0 0-2.468.212h-.458a7.55 7.55 0 0 1-.52-.608c-1.596-3.866-1.818-7.978-2.459-12.02-1.366-8.61.317-17.054 1.569-25.508.995-6.72 1.614-13.407.371-20.156-.363-1.97.053-4.001-.304-5.987ZM441.62 383.733c2.364.427 4.358 1.67 6.474 2.639a2.38 2.38 0 0 1 1.022.832 16.276 16.276 0 0 0 3.204 3.348 36.127 36.127 0 0 1 4.816 5.43c.81 1.123 1.52 2.312 2.235 3.495 1.504 2.49 2.939 5.02 4.481 7.49a84.297 84.297 0 0 1 4.502 8.45c1.53 3.207 2.855 6.486 4.164 9.77 1.257 3.151 2.361 6.36 3.426 9.576 1.13 3.414 2.155 6.86 3.188 10.301 1.011 3.372 1.968 6.758 2.961 10.135.325 1.103.69 2.194 1.029 3.293a5.805 5.805 0 0 0 .963 2.383c.203.23.115.687.16 1.04-1.193 2.118-1.343 4.52-2.067 6.77a177.128 177.128 0 0 1-8.65 21.528 15.82 15.82 0 0 0-1.004 2.169c-.145.482-.332 1.024.229 1.37.53.328 1.04.04 1.472-.254a15.291 15.291 0 0 0 3.103-2.848c3.788-4.523 7.331-9.186 9.264-14.751.212-.612.237-1.505 1.322-1.483.913 2.357 1.84 4.71 2.735 7.072a88.046 88.046 0 0 0 3.507 8.174c1.134 2.27 2.214 4.57 3.185 6.905a93.518 93.518 0 0 0 4.048 8.432c.933 1.732 1.85 3.47 2.766 5.21.2.377.492.741.299 1.224a6.418 6.418 0 0 1-2.249.128c-7.56.012-15.12.001-22.681.017-.732.002-1.549-.238-2.148.422h-.459a1.114 1.114 0 0 1-.289-.555 18.036 18.036 0 0 0 .63-5.72 4.45 4.45 0 0 0-.376-1.88c-.392-.71-.852-1.427-1.822-1.413-.899.012-1.276.724-1.543 1.393a20.17 20.17 0 0 1-5.2 7.461 6.937 6.937 0 0 0-1.027.714h-8.71a.83.83 0 0 1-.252-.592 2.882 2.882 0 0 1 .497-1.191c4.464-7.277 6.608-15.218 7.583-23.495a6.168 6.168 0 0 0 .107-1.069c-.033-.58-.055-1.252-.69-1.488-.824-.306-1.213.39-1.608.898a8.653 8.653 0 0 0-1.09 1.889c-2.894 6.685-7.11 12.671-11.21 18.713-.472.696-.877 2.559-2.49.902-.332-1.482.35-2.893.324-4.356.66-6.44 1.546-12.86 1.714-19.335.056-2.157.5-4.28.475-6.452-.256-22.235-1.228-44.414-5.22-66.39-.992-5.456-1.292-11.016-2.76-16.4a67.666 67.666 0 0 0-2.288-7.302c-.293-.841-.82-1.72-.053-2.6Z"></path>
  <path fill="#878787" d="m142.72 512 .02-.447a3.736 3.736 0 0 1 2.798-.675q43.388-.022 86.775.006c.152 0 .303.033.455.046a55.119 55.119 0 0 1 1.808.002c2.059-.137 4.12-.059 6.18-.06q39.855-.01 79.71 0a29.786 29.786 0 0 1 4.116.116 2.662 2.662 0 0 1 .831.3.507.507 0 0 1 .222.712Z"></path>
  <path fill="#fafafa" d="M23.528 512a1.255 1.255 0 0 1 1.001-.425q.915-.007 1.831-.007h113.07q.916 0 1.831.007a1.257 1.257 0 0 1 1.001.425Z"></path>
  <path fill="#878787" d="M448.495 512H361.85l-.077-.423a1.83 1.83 0 0 1 .748-.475 11.406 11.406 0 0 1 3.18-.23q39.466-.011 78.933.002a8.087 8.087 0 0 1 3.598.407.529.529 0 0 1 .262.719Z"></path>
  <path fill="#828282" d="M361.877 511.628q-.019.186-.026.372h-36.216q-.007-.185-.025-.369c.814-.866 1.93-.751 2.973-.754q15.16-.04 30.318 0c1.044.002 2.158-.108 2.976.75Z"></path>
  <path fill="#e2e2e2" d="m23.048 511.55.022.45H7.483l.009-4.26a1.573 1.573 0 0 1 .427-1.376 2.375 2.375 0 0 1 .698 2.174c-.149 1.966.966 2.419 2.782 2.379 2.873-.064 5.75-.031 8.624-.01a4.494 4.494 0 0 1 3.025.642Z"></path>
  <path fill="#e0e1e1" d="M448.495 512a.481.481 0 0 0 .053-.36 1.49 1.49 0 0 1 .68-.5c3.13-.175 6.287-.832 9.345.422l.007.438Z"></path>
  <path fill="#e3e2e2" d="m476.906 511.558.011.442h-9.627a.869.869 0 0 1 .462-.862 45.422 45.422 0 0 1 6.816-.21 3.087 3.087 0 0 1 2.338.63Z"></path>
  <path fill="#1e1e1e" d="M361.877 511.628c-.532-.02-1.063-.057-1.594-.057q-16.54-.005-33.08 0c-.53 0-1.062.04-1.593.06l.055-.127c-.979-1.389-.968-3.012-1.059-4.559-.583-9.912-1.881-19.744-3.396-29.564-1.627-10.55-4.162-20.924-6.511-31.335-.732-3.245-.698-6.59-1.56-9.805a67.683 67.683 0 0 0-10.697-22.308c-5.252-7.247-10.622-14.42-15.964-21.61-6.414-8.633-14.944-15.13-24.277-20.738-8.963-5.387-18.6-9.621-27.992-14.272-11.499-5.695-22.986-11.386-33.07-19.234-1.182-.92-2.26-1.935-3.364-2.927-1.708-1.534-1.943-1.521-3.446.069-3.564 3.768-3.652 3.821-.78 8.049 8.363 12.317 13.198 25.886 16.143 40.12a148.582 148.582 0 0 0 12.44 35.126c2.618 5.358 5.38 10.65 8.035 15.991 3.19 6.421 4.445 13.321 5.201 20.261 1.261 11.578 2.338 23.18 1.968 34.852-.174 5.476-1.047 10.874-1.716 16.295-.233 1.884.266 3.942-1.221 5.593l-1.359-.004c-.97-1.857-.944-3.904-1.011-5.87a80.344 80.344 0 0 0-12.978-41.302c-7.155-11.022-13.354-22.453-17.449-34.831-2.135-6.455-4.294-12.91-6.035-19.464-2.024-7.62-4.706-15.025-7.368-22.454-2.807-7.836-5.507-15.703-8.747-23.393-.902-2.14-1.997-4.204-2.858-6.356-.544-1.36-1.038-1.531-2.148-.425a131.417 131.417 0 0 1-11.157 9.906c-8.134 6.448-16.977 11.982-25.676 17.702-9.89 6.505-19.702 13.11-29.129 20.209-.845.636-1.661 1.603-3.014 1.017-.672-.95-1.37-1.886-2.014-2.855a73.453 73.453 0 0 0-10.088-12.503 64.647 64.647 0 0 0-5.983-5.628 50.217 50.217 0 0 0-9.87-5.384 6.202 6.202 0 0 0-4.013-.44 2.827 2.827 0 0 1-1.25.479c-2.983.217-4.732 1.971-6.074 4.252-.537.126-.514-.454-.841-.592a4.538 4.538 0 0 1 1.502-3.707 50.77 50.77 0 0 1 6.1-5.539c5.17-3.933 10.375-7.824 15.918-11.288 4.774-2.984 9.437-6.115 14.053-9.309a90.988 90.988 0 0 1 10.588-6.413q8.065-4.086 15.84-8.623c9.538-5.564 19.317-10.765 28.6-16.718 3.156-2.025 6.32-4.035 9.333-6.25a34.19 34.19 0 0 0 6.253-5.978 59.605 59.605 0 0 0 8.484-14.008c2.493-5.725 4.552-11.59 6.545-17.48.88-2.6 1.963-5.137 2.97-7.698a6.261 6.261 0 0 1 2.96-3.443c.76-.444 1.125.002 1.392.577a15.229 15.229 0 0 1 .638 2.07 29.875 29.875 0 0 0 8.044 13.301c12.3 11.843 26.497 21.196 41.752 29.232 7.934 4.178 15.99 8.136 24.775 10.566 3.08.84 6.113 1.817 9.174 2.703 3.984 1.152 6.32 3.523 6.986 7.42.798 4.678 1.871 9.321 1.9 14.09a22.069 22.069 0 0 0 .409 2.99c.1 1.075.033 2.154.067 3.232.084 2.699.818 3.502 3.652 4.13a42.189 42.189 0 0 0 9.56.644c10.353-.161 17.383 4.872 22.335 12.918a84.673 84.673 0 0 1 5.447 10.421c2.72 5.159 5.6 10.247 7.815 15.63 1.1 2.935 2.709 5.674 3.767 8.627a11.823 11.823 0 0 0 .755 1.907c1.859 2.186 2.123 4.933 2.718 7.488 1.69 7.267 4.556 14.169 6.983 21.208 1.76 5.1 2.017 10.458 2.904 15.706a147.993 147.993 0 0 1 2.472 20.984c.074 3.004 1.2 5.92 1.328 8.96a272.394 272.394 0 0 0 2.608 28.53 1.556 1.556 0 0 1-.16 1.046Z"></path>
  <path fill="#f7bc9a" d="M288.948 350.046a5.64 5.64 0 0 1-.316-2.114c-.125-4.881-1.12-9.659-1.936-14.457a14.767 14.767 0 0 0-1.109-3.485 5.351 5.351 0 0 0-2.538-2.655 21.059 21.059 0 0 0-3.566-1.4c-2.384-.721-4.782-1.398-7.17-2.108-.574-.172-1.129-.405-1.693-.61a3.222 3.222 0 0 1-1.704-2.431c-.991-4.95-1.78-9.903-.597-14.945.827-3.518 1.866-4.755 5.704-5.114 10.523-.985 20.404-4.025 29.97-8.06a31.64 31.64 0 0 0 15.079-13.269 49.85 49.85 0 0 1-22.972 8.31c-9.924 1.228-19.96 2.18-29.852.53a92.561 92.561 0 0 1-33.357-11.99c-6.739-4.114-13.415-8.283-19.057-13.701-9.588-9.208-15.828-19.992-17.196-33.04a63.575 63.575 0 0 1-.436-8.824c.1-2.917.821-3.554 3.82-3.42a19.591 19.591 0 0 0 3.412-.3c1.72-.223 1.664-.953.674-1.955-5.08-5.139-6.007-11.564-6.585-18.185-.88-10.057 1.132-19.909 2.092-29.834.885-9.158 2.152-18.281 2.583-27.482a57.142 57.142 0 0 1 1.552-11.54 21.486 21.486 0 0 1 2.995-6.962c2.071-3.024 4.35-5.912 6.472-8.902a3.936 3.936 0 0 1 1.807-1.606 5.967 5.967 0 0 1 2.688.33c4.22 1.424 8.468.197 12.68-.005a32.408 32.408 0 0 0 6.579-.514c3.032-.314 6.03-.842 9.03-1.343 1.767-.245 3.453-.83 5.207-1.132a26.056 26.056 0 0 0 1.678-.51c5.7-1.762 11.4-3.517 17.273-4.718 1.444-.283 2.858-.68 4.296-.991 6.516-1.634 13.234-2.026 19.873-2.897a6.747 6.747 0 0 1 1.16-.186c4.649-.67 9.293-1.368 13.983-1.745a10.328 10.328 0 0 1 3.124.273 2.113 2.113 0 0 1 .639.404c3.153 2.209 5.006 5.36 6.847 8.501a92.951 92.951 0 0 1 12.149 37.205c.556 4.99 1.15 9.978 1.725 14.968a5.605 5.605 0 0 1-.288 3.385.884.884 0 0 1-.635.329 4.204 4.204 0 0 1-1.227-.8c-3.118-3.125-5.926-6.607-10.598-7.895a73.19 73.19 0 0 0-11.2-2.035 149.212 149.212 0 0 0-15.508-.446 11.849 11.849 0 0 0-5.107.934c-6.886 2.024-7.007 5.448-6.523 12.163.579 8.034 5.41 12.945 13.046 15.85a55.288 55.288 0 0 0 20.907 3.992c4.657-.09 9.237.862 13.887.98 1.863.047 3.81-.63 5.605.388 1.243 1.939 1.024 4.173 1.329 6.28.596 4.123 1.03 8.271 1.37 12.42.426 5.174-1.326 9.913-3.696 14.484-.234.45-.561.855-.799 1.307-.466.887-.034 1.196.868 1.161a5.469 5.469 0 0 0 2.536-.905c2.567-1.487 2.93-1.28 3.03 1.625a79.474 79.474 0 0 1-1.127 13.3 88.028 88.028 0 0 1-6.733 23.656 1.737 1.737 0 0 0-.101.636 6.563 6.563 0 0 1-1.393 1.95 15.745 15.745 0 0 0-3.603 6.868c-.571 2.074-.973 4.19-1.395 6.298-.422 2.107-.788 4.223-1.157 6.339-.258 1.48-.51 2.962-.713 4.45-.502 3.686-.969 7.377-1.464 11.064-.086.636-.246 1.264-.366 1.897a1.724 1.724 0 0 0 .516 1.578c-.047.551-.297 1.061-.355 1.61-.701 2.597-.011 5.368-1.12 7.911-3.509 5.206-4.89 11.117-6.266 17.015-.885 3.79-1.546 7.622-3.253 11.203a11.892 11.892 0 0 1-4.023 4.868 41.922 41.922 0 0 1-14.882 6.9c-1.54.334-2.899 1.296-4.569 1.15Z"></path>
  <path fill="#282828" d="M361.804 511.498a7.6 7.6 0 0 1-.878-3.954 4.358 4.358 0 0 0-.24-1.696 3.741 3.741 0 0 1-.191-1.481 14.61 14.61 0 0 0-.603-4.89 13.387 13.387 0 0 1-.335-2.976 8.472 8.472 0 0 0-.32-2.981 5.016 5.016 0 0 1-.131-1.708c-.014-1.796 0-3.593-.009-5.39a8.052 8.052 0 0 0-.372-3.403 1.386 1.386 0 0 1-.07-.639c.166-2.535-.585-4.967-1.043-7.42a22.457 22.457 0 0 1-.349-3.405c-.057-1.713-.092-3.413-.317-5.133-.23-1.759-.483-3.539-.637-5.319-.196-2.27-.663-4.518-1.028-6.774-.24-1.478-.528-2.95-.756-4.43-.424-2.75-.797-5.506-1.229-8.254a40.237 40.237 0 0 0-1.645-6.452 94.301 94.301 0 0 0-2.326-6.288 55.869 55.869 0 0 1-2.902-8.578c-.622-2.652-1.422-5.266-2.14-7.898a9.212 9.212 0 0 1-.301-1.25 3.44 3.44 0 0 0-1.46-2.777 1.047 1.047 0 0 1-.356-.981c.376-.833-.086-1.553-.353-2.3-.258-1.074-.766-2.071-1.073-3.132a79.529 79.529 0 0 1 .315-24.205 22.946 22.946 0 0 1 3.736-9.634 3.524 3.524 0 0 0 .26-4.002c-3.003-6.145-5.684-12.422-6.5-19.207-.399-3.309-.852-6.684.326-9.974 1.022-.331 1.277.577 1.77 1.027 4.872 4.437 8.424 9.841 12.318 14.995a483.718 483.718 0 0 1 30.27 44.774 275.533 275.533 0 0 0 18.25 27.67c8.008 10.418 16.652 20.253 27.562 27.247-7.027-6.558-10.863-15.206-12.745-24.79-.82-4.18-1.315-8.393-1.824-12.606a6.942 6.942 0 0 0-3.607-5.647c-5.35-3.114-9.35-7.595-13.125-12.222-10.584-12.973-20.249-26.505-28.127-41.133-3.04-5.643-6.41-11.128-9.508-16.746-.45-.815-1.385-1.669-.477-2.74 3.965 1.718 7.936 3.426 11.891 5.165a11.2 11.2 0 0 1 2.75 1.406c3.264 9.261 9.647 16.777 15.539 24.56 10.156 13.418 20.98 26.373 31.168 39.77 2.891 3.801 5.604 7.722 8.195 11.717 2.512 3.872 3.614 8.236 4.984 12.493a96.483 96.483 0 0 0 7.031 17.078 35.521 35.521 0 0 1 3.872 14.09c.957 10.203.655 20.408.88 30.614.088 4 1.215 7.824 4.39 10.81a6.254 6.254 0 0 1-.197 2.136c-.119.708-.208 1.42-.31 2.131.08 1.659.654 3.403-.925 4.776a1.07 1.07 0 0 0-.354.098c-.914-.024-1.828-.069-2.743-.069q-40.514-.005-81.03-.006c-.99 0-1.98-.043-2.971-.067Z"></path>
  <path fill="#1e1e1e" d="M450.334 502.499a1.003 1.003 0 0 1-1.527-.415 39.127 39.127 0 0 1-2.105-4.059 19.073 19.073 0 0 1-1.44-7.561c.073-6.114.024-12.229.02-18.343a8.167 8.167 0 0 0-.31-2.77 6.811 6.811 0 0 1-.142-1.923c-.068-1.642.201-3.305-.406-4.915a2.913 2.913 0 0 1-.05-1.072 28.11 28.11 0 0 0-3.83-14.44 87.06 87.06 0 0 1-6.415-15.178q-1.204-3.696-2.33-7.414a26.61 26.61 0 0 0-3.248-6.871 276.806 276.806 0 0 0-7.62-10.979c-2.408-3.303-4.862-6.588-7.506-9.723-1.895-2.246-3.516-4.68-5.46-6.873-2.39-2.697-4.322-5.709-6.784-8.357-1.495-1.608-2.682-3.469-4.027-5.202-2.78-3.582-5.624-7.121-8.35-10.74-3.124-4.148-6.21-8.324-9.195-12.562a51.452 51.452 0 0 1-5.254-9.782 6.817 6.817 0 0 1-.427-1.444c-.026-.148.223-.338.346-.51a18.732 18.732 0 0 1 3.685 1.679c10.202 5.019 20.32 10.186 30.23 15.7 3.602 2.004 7.176 4.064 10.56 6.392a13.825 13.825 0 0 1 2.694 2.9 196.198 196.198 0 0 0 20.314 21.77 11.65 11.65 0 0 1 2.66 3.407 16.81 16.81 0 0 1 1.337 5.195c.626 3.98 1.161 7.972 1.752 11.956.538 3.629 1.148 7.248 1.642 10.881q.887 6.52 1.625 13.06c.99 8.658 1.166 17.355 1.398 26.052.103 3.879.37 7.752.434 11.635.087 5.258-.322 10.49-.714 15.722-.323 4.3-.774 8.592-1.19 12.886-.062.638-.242 1.265-.367 1.898Z"></path>
  <path fill="#f5b692" d="M319.677 279.22a3.754 3.754 0 0 1-.915 1.94 29.734 29.734 0 0 1-3.367 4.05 10.255 10.255 0 0 0-.823 1.023 6.585 6.585 0 0 1-.884.98 38.111 38.111 0 0 1-8.341 5.566 75.6 75.6 0 0 1-11.466 4.181c-1.976.498-3.893 1.22-5.81 1.907a46.83 46.83 0 0 1-7.315 1.516c-2.82.53-5.711.58-8.523 1.224a3.492 3.492 0 0 0-2.821 2.508 21.726 21.726 0 0 0-1.063 5.895 20.418 20.418 0 0 0 .352 5.348 26.5 26.5 0 0 1 .476 3.6 10.785 10.785 0 0 0 1.443 4.26 36.707 36.707 0 0 1-7.102-2.312 188.09 188.09 0 0 1-31.865-16.376c-5.17-3.314-10.31-6.664-15.176-10.377-4.456-3.4-8.367-7.342-12.573-10.986-4.37-3.785-6.593-8.518-8.035-13.736-.173-.625-.297-1.262-.463-1.889-.124-.468-.57-.365-.922-.424a2.13 2.13 0 0 0 .912-1.846c-.123-2.074.168-4.165-.309-6.229a6.139 6.139 0 0 1-.053-1.29 87.174 87.174 0 0 0-1.288-11.749c-.413-2.771-1.098-5.486-1.574-8.241.816-.217 1.045.423 1.373.868 5.09 6.916 10.14 13.876 16.198 20.081a102.97 102.97 0 0 0 20.408 15.82 95.63 95.63 0 0 0 20.982 9.884c10.035 3.157 20.192 5.25 30.91 4.4 5.987-.474 11.999-.721 17.892-1.829 6.769-1.271 13.194-3.428 18.683-7.57a1.046 1.046 0 0 1 1.059-.197Z"></path>
  <path fill="#1e1e1e" d="M359.634 334.795a2.447 2.447 0 0 0 .112.84 48.647 48.647 0 0 0 3.167 5.733 5.958 5.958 0 0 1 .348.556c1.392 2.475 2.77 4.957 4.177 7.425 1.948 3.414 3.924 6.814 5.879 10.225 1.232 2.148 2.365 4.35 3.691 6.445q2.807 4.432 5.844 8.734 4.546 6.452 9.248 12.806c1.653 2.227 3.476 4.341 5.24 6.494 1.533 1.87 3.193 3.644 4.79 5.464a21.7 21.7 0 0 0 3.22 3.332c2.09 1.545 3.864 3.485 6.265 4.64 2.396 1.154 3.113 3.157 3.43 5.471.292 2.123.587 4.258.772 6.376.201 2.298.893 4.497 1.095 6.782a27.467 27.467 0 0 0 .973 4.187 41.126 41.126 0 0 0 5.482 12.476c.755 1.16 1.543 2.302 2.315 3.452a25.729 25.729 0 0 0 3.793 4.014c.428.41.868.812 1.257 1.254a.659.659 0 0 1 .107.577c-.097.25-.383.2-.584.091a10.349 10.349 0 0 1-1.149-.701c-1.682-1.227-3.366-2.454-5.024-3.709a91.485 91.485 0 0 1-9.467-8.086c-1.51-1.506-2.867-3.149-4.277-4.742-.925-1.044-1.868-2.076-2.79-3.121-2.484-2.812-4.728-5.783-6.997-8.744-2.319-3.024-4.455-6.162-6.703-9.23-1.822-2.486-3.329-5.143-4.966-7.728-2.34-3.695-4.585-7.444-6.866-11.172-2.927-4.784-5.84-9.578-8.783-14.353-.803-1.302-1.671-2.568-2.551-3.825-4.233-6.048-8.442-12.112-12.738-18.12-2.463-3.444-5.09-6.785-7.618-10.189-1.57-2.113-3.096-4.257-4.643-6.386a3.221 3.221 0 0 0-.27-.347q-2.375-2.472-4.757-4.937c-.562-.58-1.28-1.057-1.321-1.947-.892-1.082-.406-2.16-.001-3.24.571-1.228.216-2.532.362-3.793.09-.775-.203-1.788 1.11-1.967a15.982 15.982 0 0 0 2.755.94 42.067 42.067 0 0 1 9.017 3.407c.722.385 1.437.79 2.113 1.241 1.661 1.108 3.297 2.248 4.943 3.375Z"></path>
  <path fill="#eaab86" d="M319.677 279.22a25.645 25.645 0 0 1-5.054 3.292c-3.085 1.384-6.09 2.945-9.468 3.666-1.185.252-2.35.596-3.516.92a39.902 39.902 0 0 1-8.072 1.215c-1.96.133-3.903.477-5.853.729a3.083 3.083 0 0 1-.45.075c-4.345-.107-8.664.875-13.001.432-4.968-.508-9.996-.744-14.774-2.369-1.065-.362-2.218-.491-3.32-.764a86.119 86.119 0 0 1-12-4.116c-.978-.4-1.97-.77-2.946-1.172a90.657 90.657 0 0 1-8.163-4.331c-1.718-.923-3.363-1.967-5.017-2.99a95.534 95.534 0 0 1-8.973-6.267 205.145 205.145 0 0 1-7.543-6.236 83.552 83.552 0 0 1-5.885-6.276c-1.92-2.05-3.591-4.264-5.33-6.435-1.37-1.712-2.645-3.492-3.966-5.24a6.91 6.91 0 0 0-.695-.85 13.486 13.486 0 0 1-2.556-3.548c-.232-.44-.38-.957-.923-1.192a40.705 40.705 0 0 1-3.174-9.04c-1.442-4.105-.214-8.213-.034-12.322.221-5.055 1.193-10.09.44-15.174a9.806 9.806 0 0 1 .153-4.677c2.776-2.1 1.963-5.025 1.99-7.756-.058-1.668.072-3.334.006-5.001.33-4.121.607-8.246.94-12.367a8.768 8.768 0 0 1 .174-2.273c.319-3.12.817-6.22 1.298-9.32.188-.896.394-1.79.584-2.686a5.448 5.448 0 0 0 .294-1.955 7.33 7.33 0 0 1 .062-1.018 50.454 50.454 0 0 0 .828-5.834 6.878 6.878 0 0 1 .2-1.44c.21-3.074.626-6.133.686-9.215a14.408 14.408 0 0 1 .039-1.852 31.1 31.1 0 0 0 .469-5.427 5.254 5.254 0 0 1 .157-1.061c.486-1.785.228-3.672.819-5.443.187-.747.394-1.49.589-2.236.341-1.001.526-2.046.924-3.032.314-.761.568-1.546.954-2.282.833-1.5 1.783-2.939 2.713-4.387.542-.717 1.037-1.463 1.543-2.203a39.02 39.02 0 0 0 2.8-3.605c.599-.814 1.06-1.71 1.678-2.509.392-.506.774-1.23 1.516-1.08.793.16.69.982.787 1.596a7.5 7.5 0 0 0 2.553 5.02c.461.44 1.12.748 1.09 1.503-.79.96-1.621 1.893-2.36 2.886-1.661 2.23-3.245 4.512-4.918 6.734a20.74 20.74 0 0 0-3.866 9.09c-.407 2.331-.7 4.662-.967 7.008-.27 2.368-.057 4.756-.444 7.07-.367 2.199-.06 4.446-.732 6.607a6.51 6.51 0 0 0-.101 1.717 8.262 8.262 0 0 1-.343 2.983 4.456 4.456 0 0 0-.115 1.497 7.443 7.443 0 0 1-.33 2.769 3.652 3.652 0 0 0-.126 1.279 8.682 8.682 0 0 1-.369 3.196 3.709 3.709 0 0 0-.092 1.284 5.808 5.808 0 0 1-.3 2.34 1.743 1.743 0 0 0-.14.843c.183 1.954-.71 3.823-.498 5.776-.786 1.915-.08 4.022-.861 5.938.117 2.375-.739 4.682-.518 7.072a9.7 9.7 0 0 1-.292 2.983 9.875 9.875 0 0 0 .045 4.283 5.372 5.372 0 0 1 .245 1.477 34.482 34.482 0 0 0 1.046 9.16 16.04 16.04 0 0 0 3.605 7.828 19.381 19.381 0 0 0 2.476 2.813 1.577 1.577 0 0 1 .657 1.098c.053.465-.207.962-.657.972-1.225.027-2.404.342-3.607.46a8.68 8.68 0 0 1-2.958-.125c-.841-.208-1.1-.044-1.46.62a2.968 2.968 0 0 0-.449 1.433 51.083 51.083 0 0 0 .062 6.47 52.286 52.286 0 0 0 1.154 7.414c.271.966.334 1.976.513 2.96a22.917 22.917 0 0 0 1.535 4.716c.696 1.669 1.333 3.352 2.157 4.98a65.673 65.673 0 0 0 6.825 10.17 67.854 67.854 0 0 0 6.807 7.245 38.045 38.045 0 0 0 3.488 2.772c2.477 1.893 4.98 3.78 7.632 5.444a123.275 123.275 0 0 0 14.686 8.297c2.264 1.022 4.6 1.907 6.93 2.792 5.595 2.125 11.48 3.32 17.31 4.67a28.08 28.08 0 0 0 5.652.555c3.665.083 7.333.038 11 .02a13.854 13.854 0 0 0 4.758-.382c2.222.164 4.362-.549 6.587-.515a20.275 20.275 0 0 0 4.284-.502 70.006 70.006 0 0 0 9.247-2.319 43.059 43.059 0 0 0 9.556-4.538 20.422 20.422 0 0 0 1.878-1.57c.284-.24.556-.492.855-.714a.42.42 0 0 1 .603.031.45.45 0 0 1 .072.388 1.845 1.845 0 0 1-.735 1.058Z"></path>
  <path d="M246.276 109.423a45.73 45.73 0 0 1-9.099 1.363 12.255 12.255 0 0 1-8.434-4.134c-3.083-3.327-5.482-6.883-6.19-11.322a7.202 7.202 0 0 1 .02-3.206 24.29 24.29 0 0 0 1.114 17.965c.543 1.242.329 1.97-1.298 1.764-.86-.109-1.863.37-2.542-.524a4.594 4.594 0 0 1-.48-.898 5.224 5.224 0 0 1-.244-.61c-1.92-5.575-2.536-11.213-.945-16.938a27.035 27.035 0 0 0-2.663 4.2 32.985 32.985 0 0 0-2.156 4.752c-.228.671-.4 1.41-1.181 1.767-.846-.818-2.248-1.123-2.553-2.446.662-3.856 2.66-7.152 5.05-10.23a4.185 4.185 0 0 0 .935-4.364c-1.08-2.994-.578-5.988.519-8.866a115.167 115.167 0 0 1 5.932-13.047 9.676 9.676 0 0 1 1.761-2.242 21.36 21.36 0 0 1 4.133-2.193c1.321.748.284 1.568-.053 2.197-1.995 3.724-4.012 7.435-5.715 11.292-1.172 2.657-2.496 5.258-2.905 8.156a6.167 6.167 0 0 0-.107 1.93c.163.949.457 1.275 1.457.559a45.737 45.737 0 0 0 18.565-28.11 3.678 3.678 0 0 1 .679-2.025 7.79 7.79 0 0 1 3.198-1.388c.873.772.583 1.726.416 2.63a48.23 48.23 0 0 1-13.038 25.486c-5.575 5.711-4.981 14.604-1.316 19.77.005-7.287 3.66-12.834 8.284-17.877a53.621 53.621 0 0 1 14.666-11.252 108.51 108.51 0 0 0 10.45-6.223 34.815 34.815 0 0 0 10.291-10.578c.768-1.249 1.67-2.054 3.313-1.482l.9.07c.763.85.158 1.613-.21 2.358a33.066 33.066 0 0 1-3.782 5.534 5.22 5.22 0 0 1-.371.488 5.517 5.517 0 0 1-.409.455c-.07.073-.145.142-.214.215-1.182 1.087-2.334 2.204-3.512 3.296a6.055 6.055 0 0 1-.45.404 5.752 5.752 0 0 1-.48.379c-.162.127-.335.24-.51.352-4.32 3.297-9.229 5.745-13.871 8.577a5.562 5.562 0 0 1-.53.34 39.02 39.02 0 0 0-7.032 4.595c-.142.14-.297.27-.453.398a5.62 5.62 0 0 1-.47.369c-.157.12-.324.227-.491.331a4.743 4.743 0 0 0-1.464 1.333 5.033 5.033 0 0 1-.335.439 4.775 4.775 0 0 1-.372.405c-.064.065-.132.127-.195.193-.126.135-.26.261-.395.388-.065.068-.133.131-.198.2-.127.142-.262.276-.398.413-.068.073-.14.14-.207.212a27.303 27.303 0 0 0-5.724 8.121c-.085.18-.184.354-.283.527-.133.267-.261.535-.369.813-.056.193-.123.382-.189.572a14.863 14.863 0 0 0 .02 10.51c.744-2.012.406-4.152 1.067-6.14a4.009 4.009 0 0 1 .15-.595c.453-1.123.786-2.287 1.287-3.395.074-.186.161-.367.249-.547a23.589 23.589 0 0 1 4.519-6.698 4.325 4.325 0 0 1 .396-.389c.126-.12.263-.233.4-.342.061-.056.13-.108.193-.164.118-.11.246-.216.37-.322.058-.054.121-.105.18-.16.11-.11.23-.216.348-.321.056-.055.117-.106.173-.162.11-.114.227-.221.344-.33.056-.058.116-.11.172-.169.113-.121.233-.235.354-.35.06-.063.123-.12.183-.183a5.108 5.108 0 0 1 .394-.366c.073-.06.146-.115.218-.174.46-.33.945-.625 1.374-.986.13-.12.27-.233.41-.343.125-.115.261-.222.394-.33.062-.056.13-.109.192-.165a4.74 4.74 0 0 1 .39-.316 3.697 3.697 0 0 1 .425-.272c.142-.092.29-.178.435-.267.137-.109.277-.211.415-.32.134-.127.275-.243.42-.363.076-.063.152-.119.228-.182a66.07 66.07 0 0 1 7.834-5.106c.165-.11.338-.21.511-.31.583-.348 1.216-.616 1.8-.964.158-.11.321-.213.484-.317a5.36 5.36 0 0 1 .494-.309 5.627 5.627 0 0 1 .526-.269 14.867 14.867 0 0 0 1.844-.946c.163-.118.333-.224.505-.33 2.538-1.51 5.124-2.95 7.544-4.625.144-.121.3-.231.456-.339.441-.303.925-.55 1.36-.861.126-.104.26-.2.392-.297.119-.103.245-.2.367-.298.057-.051.118-.1.175-.15.108-.104.223-.203.336-.301.053-.051.111-.1.164-.15.102-.105.212-.202.322-.298-.004-.003.164-.145.16-.148.099-.104.207-.2.315-.295l.158-.148a4.83 4.83 0 0 1 .315-.297c-.003-.004.161-.146.158-.15.1-.108.21-.207.32-.306-.003-.004.164-.151.162-.156.105-.112.217-.217.33-.324.055-.057.113-.11.168-.167.111-.122.228-.235.346-.352.058-.063.118-.12.176-.184.116-.135.237-.26.36-.39.06-.071.124-.135.185-.205a34.258 34.258 0 0 0 2.546-3.461 5.323 5.323 0 0 1 .338-.476c.111-.161.232-.315.352-.471.053-.084.113-.162.166-.245.93-1.162.99-2.897 2.647-3.58 3.723-.028 3.7-.04 2.059 3.157a39.007 39.007 0 0 1-13.847 14.893c-5.27 3.434-11.041 6.11-16.31 9.54-4.834 3.148-9.548 6.446-13.113 10.95a20.26 20.26 0 0 0-4.287 11.835c-.085 1.56.47 2.29 2.258 2.527 2.003.266 4.28.367 5.374 2.511Z"></path>
  <path fill="#282828" d="M246.276 109.423a11.465 11.465 0 0 0-6.12-2.09c-.304-.023-.612-.011-.913-.053-.718-.1-1.086-.43-1.122-1.148a17.09 17.09 0 0 1-.007-3.231 20.794 20.794 0 0 1 3.68-9.836 35.008 35.008 0 0 1 6.698-6.718 95.068 95.068 0 0 1 9.352-6.515c2.125-1.26 4.311-2.429 6.467-3.644a82.677 82.677 0 0 0 11.036-6.877 37.372 37.372 0 0 0 11.44-14.584c.026-.059-.005-.14-.02-.354a8.107 8.107 0 0 0-2.807-.118c-1.97.633-1.65 2.506-2.337 3.834l-.004.005a4.846 4.846 0 0 0-.444.448l.012-.003c-1.291 1.294-2.696 2.512-3.22 4.314v-.004a3.223 3.223 0 0 0-.46.442l.007-.007a2.528 2.528 0 0 0-.464.441l.008-.008a2.354 2.354 0 0 0-.466.44l.008-.007a2.336 2.336 0 0 0-.466.44l.008-.009a2.344 2.344 0 0 0-.467.44l.008-.008a2.383 2.383 0 0 0-.467.44l.008-.008a2.554 2.554 0 0 0-.468.437l.008-.007a3.1 3.1 0 0 0-.469.435l.006-.005a4.82 4.82 0 0 0-.467.43c-.64.395-1.543.464-1.828 1.302l.002-.002c-2.92 1.49-5.895 2.898-8.265 5.167l-.006.005c-.779.4-1.886.281-2.282 1.285a2.02 2.02 0 0 1-.415.026 3.18 3.18 0 0 0-.502.416l-.005.003c-.787.392-1.891.283-2.291 1.287l-.007.006a20.242 20.242 0 0 0-8.696 5.622v-.002q-.233.207-.463.418l-.013.008c-.237.257-.674.17-.895.456l.01-.01a2.551 2.551 0 0 0-.47.434l.006-.007a4.066 4.066 0 0 0-.469.43h.001c-.838.488-1.973.634-2.28 1.74l.002-.008a2.597 2.597 0 0 0-.469.437l.008-.007a3.053 3.053 0 0 0-.468.437l.006-.006a3.365 3.365 0 0 0-.464.437l.006-.006a3.377 3.377 0 0 0-.465.438l.007-.006a3.323 3.323 0 0 0-.465.439l.006-.007a2.861 2.861 0 0 0-.462.442l.009-.002c-2.5 1.944-4.788 4.018-5.062 7.327v.002a4.425 4.425 0 0 0-1.361 3.48 2.1 2.1 0 0 1-.016.409c-.485.579.001 2.076-1.443 1.69a1.92 1.92 0 0 1-1.388-2.76c.629-1.21.553-2.49 1.001-3.682.28-.233.203-.628.45-.875l-.005.006c1.994-3.116 4.214-6.09 6.413-9.078l.004.006a2.442 2.442 0 0 0 .464-.44l-.008.007a2.252 2.252 0 0 0 .465-.44l-.008.007a2.165 2.165 0 0 0 .466-.44l-.011.008a9.974 9.974 0 0 1 2.304-2.17l-.008.01a2.383 2.383 0 0 0 .469-.436l-.006-.003c2.664-1.639 5.648-2.851 7.79-5.186v.005c5.294-2.445 10.413-5.14 14.668-9.076v.012a2.359 2.359 0 0 0 .47-.435l-.006-.004a6.265 6.265 0 0 0 4.124-3.881l.002.006a2.554 2.554 0 0 0 .462-.443l-.012.001c2.306-2.376 4.446-4.844 5.083-8.144a2.35 2.35 0 0 1 .453-.033c5.283.627 10.598.458 15.902.567a3.16 3.16 0 0 1 1.554.22l-.202.25c-1.888.18-2.536 1.263-2.886 2.945-1.226 5.892-5.199 10.306-9.281 14.614-3.83 4.04-8.517 7.176-12.84 10.699-5.064 4.124-10.485 7.929-14.576 13.021a25.715 25.715 0 0 0-4.728 9.506 3.03 3.03 0 0 0 .494 3.04 21.69 21.69 0 0 1-5.132 1.204Z"></path>
  <path fill="#eaab86" d="M332.99 258.946a.694.694 0 0 1-.237-.936c.875-2.445 1.701-4.905 2.588-7.345a81.786 81.786 0 0 0 2.993-10.778c.523-2.43.757-4.94 1.14-7.405.306-1.978.063-4.014.738-5.945a2.65 2.65 0 0 0 .083-.854c.006-2.153.003-4.305.003-6.435-.764-.333-.988.282-1.344.573a6.5 6.5 0 0 1-5.285 1.478.664.664 0 0 1-.544-.966c.336-.56.708-1.103 1.093-1.634a16.167 16.167 0 0 0 2.101-4.04 47.368 47.368 0 0 0 2.008-7.033 12.282 12.282 0 0 0-.036-4.708 3.942 3.942 0 0 1-.241-1.042c.222-2.168-.439-4.266-.538-6.411-.085-1.842-.507-3.67-.75-5.507-.217-1.627-.392-3.26-.585-4.89-1.497-2.625-1.102-5.569-1.548-8.367-.63-3.95-.698-7.978-1.79-11.865.166-.555 1.137-.985.2-1.73a.923.923 0 0 1-.088-1.343c.149-.24.42-.478.426-.72a9.497 9.497 0 0 0-.251-3.842 2.541 2.541 0 0 1-.14-.846c-.047-1.572-.22-3.13-.383-4.695-.245-2.347-.666-4.668-.902-7.004-.158-1.565-.42-3.119-.613-4.675-.358-2.901-.955-5.777-1.467-8.66a61.262 61.262 0 0 0-2.437-8.48c-.79-2.388-1.845-4.7-2.795-7.04a92.98 92.98 0 0 0-5.05-9.89 61.044 61.044 0 0 0-3.488-5.29 6.1 6.1 0 0 0-2.13-1.92 1.412 1.412 0 0 1-.852-.944c1.45-.823 2.654.081 3.928.493.861.433 1.672.945 2.49 1.444 1.359 1.06 2.54 2.291 3.785 3.462a25.347 25.347 0 0 1 1.538 2.108c.116.158.22.322.322.488.117.162.22.33.324.499 1.183 1.653 1.91 3.54 3.044 5.217a12.278 12.278 0 0 1 1.352 2.67c.277.638.635 1.242.907 1.884.222.669.369 1.356.564 2.033a10.228 10.228 0 0 0 .437 1.483 19.137 19.137 0 0 1 .69 2.201c.869 3.679 1.485 7.398 2.1 11.117.184 1.453.58 2.877.657 4.344.598 4.57 1.201 9.14 1.634 13.727.285 2.598.553 5.199.998 7.779q.701 7.984 2.177 15.874c.49 2.69 1.136 5.358 1.49 8.072-.41 2.512 1.403 3.457 3.402 4.273a6.588 6.588 0 0 1 .375 3.175c.02 7.957-.022 15.915.005 23.873a21.575 21.575 0 0 0 .26 3.641c.414 2.38.397 2.386 2.473 1.121a20.636 20.636 0 0 0 4.797-4.258c.504-.581.845-1.418 1.893-1.335a34.784 34.784 0 0 1-.549 6.637 6.046 6.046 0 0 1-6.348 5.07c-.792-.053-1.728-.435-2.401.22-.568.553-.289 1.37-.401 2.066-.436 2.687-.738 5.398-1.302 8.06a58.432 58.432 0 0 1-6.515 17.817 43.384 43.384 0 0 1-3.609 5.478q-.207.219-.4.448Z"></path>
  <path fill="#282828" d="M276.14 53.299a5.699 5.699 0 0 1-.899.111 1.452 1.452 0 0 0-1.438.86 33.97 33.97 0 0 1-3.806 5.354 27.966 27.966 0 0 1-4.504 4.28 108.056 108.056 0 0 1-13.118 8.185 53.054 53.054 0 0 0-8.484 5.423c-4.478 3.816-8.658 7.897-11.49 13.008a26.682 26.682 0 0 0-2.449 6.46 17.236 17.236 0 0 0-.152 3.651c-.008.287-.025.573-.027.86-.001.183-.082.295-.267.279a.66.66 0 0 1-.403-.126 9.609 9.609 0 0 1-1.931-2.9 23.403 23.403 0 0 1-1.137-4.15 22.65 22.65 0 0 1-.322-4.058 14.421 14.421 0 0 1 4.473-10.073 36.334 36.334 0 0 0 3.192-3.647 51.904 51.904 0 0 0 7.25-12.9 61.9 61.9 0 0 0 2.012-7.267 9.113 9.113 0 0 0 .434-3.824 30.72 30.72 0 0 1 17.475-2.557 112.707 112.707 0 0 1 12.256 2.431c1.103.295 2.292.075 3.335.6Z"></path>
  <path fill="#f7bc9a" d="M189.955 196.31a19.65 19.65 0 0 0 .063 4.281 34.861 34.861 0 0 1 .373 6.613 3.582 3.582 0 0 1-.042 1.281c-.589 1.677-.365 3.398-.41 5.105a8.238 8.238 0 0 1-.343 2.965 4.402 4.402 0 0 0-.111 1.489 14.198 14.198 0 0 1-.347 3.395 12.353 12.353 0 0 0-.115 2.99c-.016 1.431-.017 2.862-.025 4.293-.176-.31-.34-.629-.531-.93a.466.466 0 0 0-.745-.162c-.295.225-.56.486-.848.72a5.706 5.706 0 0 1-5.696 1.207 8.578 8.578 0 0 1-4.904-3.62 16.437 16.437 0 0 1-2.327-8.444 54.616 54.616 0 0 0-5.208-21.451c-1.596-3.493-3.251-6.96-4.879-10.44a20.259 20.259 0 0 1-1.976-8.979c.042-3.423 3.428-8.085 7.412-8.518a5.463 5.463 0 0 0 2.4-.59c1.548.414.966 1.933 1.647 2.798.35 1.09.747 2.166 1.129 3.246.475 2.125 1.945 3.799 2.916 5.697.31.621.609 1.248.977 1.842.942 1.388 1.662 2.898 2.669 4.25.58.916 1.225 1.793 1.885 2.66 1.409 1.97 3.043 3.78 4.477 5.728a7.655 7.655 0 0 0 1.4 1.402c.427.355 1.01.574 1.16 1.172Z"></path>
  <path fill="#282828" d="M270.243 103.068c-.061.043-.116.11-.184.125-5.698 1.268-11.282 2.908-16.856 4.58a1.885 1.885 0 0 1-.452.023c-.691-1.31-.03-2.537.346-3.737 1.757-5.596 5.746-9.66 10.175-13.545 6.427-5.64 13.737-10.312 19.867-16.259 5.437-5.275 10.154-10.962 11.395-18.539a2.279 2.279 0 0 1 .68-1.343q.11-.112.213-.23a15.03 15.03 0 0 1 5.437.484c.781.76.378 1.622.212 2.447a52.68 52.68 0 0 1-7.068 16.952 119.3 119.3 0 0 1-21.266 26.297c-.896.821-2.56 1.123-2.5 2.745Z"></path>
  <path fill="#ccc" d="m23.048 511.55-12.934.018c-.303 0-.606.008-.908-.009-.99-.055-1.218-.24-1.251-1.133-.034-.926-.005-1.853-.01-2.78-.001-.426-.016-.854-.026-1.281.096-1.998-.169-4.017.425-5.987a2.38 2.38 0 0 0 .033-.857c-.207-2.59.514-5.123.538-7.703a19.455 19.455 0 0 1 .458-2.962 155.658 155.658 0 0 1 4.099-18.434 108.14 108.14 0 0 1 4.517-12.37 72.906 72.906 0 0 0 3.556-9.275 10.135 10.135 0 0 0 .181-1.056 5.886 5.886 0 0 1 .867 3.044c.017 2.944.57 5.842.83 8.764a21.24 21.24 0 0 1-.182 6.872 4.5 4.5 0 0 0-.141.849c-.099 2.366-.639 4.688-.85 7.032-.24 2.647-.91 5.232-1.04 7.884-.75 1.776-.355 3.692-.77 5.534a21.73 21.73 0 0 0-.103 4.95 23.513 23.513 0 0 0 .34 4.933c.324 1.455.257 2.982.47 4.482a85.747 85.747 0 0 0 1.9 9.484Z"></path>
  <path fill="#282828" d="M294.547 99.193a2.948 2.948 0 0 1-1.525.374c-3.709.411-7.426.767-11.123 1.253-1.957.257-3.882.73-5.817 1.126a5.557 5.557 0 0 1-1.8.226c-.25-1.242.861-1.75 1.551-2.437a108.515 108.515 0 0 0 14.369-16.741c3.873-5.855 7.961-11.603 10.417-18.182a49.296 49.296 0 0 0 2.044-6.845 5.396 5.396 0 0 1 .96-2.836 7.438 7.438 0 0 1 3.273 1.187 12.387 12.387 0 0 1 .912 6.74c-1.194 12.137-5.816 23.106-12.776 33.279-.603.88-1.544 1.72-.485 2.856ZM223.822 62.407a2.348 2.348 0 0 1-.616 1.583 23.025 23.025 0 0 0-2.24 4.21c-1.084 2.518-2.285 4.992-3.464 7.473a26.007 26.007 0 0 0-1.825 6.182 11.55 11.55 0 0 0 .676 5.278 5.302 5.302 0 0 0 .339 1.024 1.123 1.123 0 0 1-.255 1.373c-.382.443-.697.937-1.065 1.39a32.773 32.773 0 0 0-5.114 9.29 4.894 4.894 0 0 0-.155 1.056.878.878 0 0 0-.18.804c.123.645-.08 1.215-.774 1.352-.742.145-1.033-.503-1.296-1.005a36.525 36.525 0 0 1-4.198-11.784 39.58 39.58 0 0 1 1.43-18.282 36.795 36.795 0 0 1 7.819-5.13c1.875-.943 3.825-1.756 5.753-2.604 1.714-.753 3.443-1.475 5.165-2.21Z"></path>
  <path fill="#282828" d="M309.623 97.37c-.45.064-.898.156-1.351.187-4.035.276-8.02.896-12.003 1.527a6.49 6.49 0 0 1-.906.019c1.052-2.547 2.932-4.643 4.317-7.014 5.857-10.028 9.661-20.583 9.76-32.153a2.651 2.651 0 0 1 .605-2.22 37.198 37.198 0 0 1 8.194 3.835 103.567 103.567 0 0 1-3.753 25.552 49.209 49.209 0 0 1-2.86 7.727 4.552 4.552 0 0 1-2.003 2.54Z"></path>
  <path fill="#f7bc9a" d="M354.511 213.142c-1.156 1.223-2.016 2.66-3.299 3.806a19.591 19.591 0 0 1-4.163 2.96c-.648.33-1.245.75-1.819 1.1-.431-.221-.327-.531-.335-.794a10.555 10.555 0 0 0-.347-3.187 6.76 6.76 0 0 1-.112-2.136q-.007-12.8-.004-25.599c0-.86-.045-1.719-.07-2.579a.7.7 0 0 1-.019-.568c.383-.702.896-1.332 1.28-2.036 1.555-3.061 1.88-6.443 2.848-9.655a23.9 23.9 0 0 1 .608-1.748c.112-.289.248-.568.388-.847.086-.197.187-.385.292-.574.473-.757.819-1.65 1.987-1.682a3.964 3.964 0 0 1 3.103 2.278 12.818 12.818 0 0 1 1.518 8.124c-.253 1.992-.475 3.998-.867 5.962a19.506 19.506 0 0 0 1.243 10.745c-.4 2.018-.87 4.025-1.18 6.055a53.592 53.592 0 0 0-.534 5.507 25.954 25.954 0 0 1-.518 4.868Z"></path>
  <path fill="#282828" d="M200.088 118.582a10.58 10.58 0 0 1-.923 3.082c-9.25.91-17.947 3.307-25.713 8.32-.885.57-1.069 1.779-2.269 1.966a27.57 27.57 0 0 1 .593-5.779 61.022 61.022 0 0 1 6.334-19.054c.06-.12.204-.2.309-.3a34.252 34.252 0 0 0 10.46 5.175 33.255 33.255 0 0 1 9.136 4.384c.851.596 1.783 1.136 2.073 2.206ZM333.796 132.91c-.634-.894-.343-1.945-.543-2.915-.579-2.8-1.064-5.616-1.586-8.426a17.269 17.269 0 0 1 9.637 4.32 51.894 51.894 0 0 1 7.684 8.738 47.258 47.258 0 0 1 3.754 4.944c.005-.664-.532-1.657.818-2.014a83.326 83.326 0 0 1-.14 8.609c-.045 1.939-.186 3.876-.3 5.813a2.973 2.973 0 0 1-.37 1.663c-.594-1.99-2.651-2.598-4.052-3.83a72.666 72.666 0 0 1-13.868-15.561c-.294-.467-.355-1.127-1.034-1.34ZM330.128 115.998a2.922 2.922 0 0 1-.852-1.753c2.697-7.425 4.579-15.148 9.015-21.94.352-.537.53-1.202 1.2-1.518 2.474 3.858 5.066 7.653 7.385 11.591a53.818 53.818 0 0 1 5.229 11.664 2.975 2.975 0 0 1 .054.632c-3.18-.209-6.237-1.183-9.472-1.165a25.194 25.194 0 0 0-10.189 2.04c-.742.328-1.471.816-2.37.45ZM239.876 54.213c.262 2.217-.68 4.23-1.235 6.302-1.478 5.516-4.416 10.365-7.832 14.985a25.874 25.874 0 0 1-3.385 4.051 18.203 18.203 0 0 1-2.08 1.672 25.923 25.923 0 0 0-4.326 3.506 15.607 15.607 0 0 1-1.338 1.175c-.23.19-.706.06-.746-.201a9.601 9.601 0 0 1-.2-4.216 32.038 32.038 0 0 1 1.906-5.724c1.338-2.736 2.48-5.557 3.814-8.294.826-1.694 1.86-3.296 2.788-4.946.322-.57.617-1.156.902-1.744.105-.216-.014-.41-.189-.565a20.447 20.447 0 0 1 3.674-2.044c2.227-1.206 4.506-2.328 6.781-3.454a2.556 2.556 0 0 1 1.466-.503ZM351.273 169.925l-1.322 1.767c-1.052.27-1.518-.503-2.014-1.085a57.417 57.417 0 0 1-11.349-19.732c-.19-.592-.245.27-.474.158a4.777 4.777 0 0 1-.301-1.01c-.296-4.18-.901-8.325-1.474-12.475a1.56 1.56 0 0 1 .058-.42.707.707 0 0 1 .747.358c4.472 6.592 9.816 12.383 17.026 16.462a3.105 3.105 0 0 1 .488.45 92.017 92.017 0 0 1 .088 10.42 4.961 4.961 0 0 1-1.473 5.107ZM203.744 112.094l-2.714 4.414c-2.199-1.118-3.873-2.924-6.184-3.947-3.242-1.434-6.665-2.428-9.901-3.855a16.866 16.866 0 0 1-5.605-3.57 6.497 6.497 0 0 1 .332-.782 104.714 104.714 0 0 1 9.823-14.235.99.99 0 0 1 .405.507c1.368 6.22 5.541 10.914 9.674 15.598a33.678 33.678 0 0 1 4.17 5.87ZM207.922 106.518a15.112 15.112 0 0 1-2.76 3.523c-1.921-1.07-2.572-3.122-3.986-4.6a60.478 60.478 0 0 1-6.462-8.031 19.49 19.49 0 0 1-3.313-9.914 75.123 75.123 0 0 1 8.664-10.893 6.834 6.834 0 0 1 1.809-1.582c.974 1.671.181 3.386-.005 5.03a36.027 36.027 0 0 0 3.832 21.537 17.662 17.662 0 0 1 2.221 4.93ZM197.71 130.211a27.138 27.138 0 0 1-.423 5.611c-3.205 2.653-6.858 4.744-10.173 7.268a52.976 52.976 0 0 0-14.394 15.931c-.606 1.068-.704 2.353-1.646 3.26a13.723 13.723 0 0 1-.538-4.02 90.577 90.577 0 0 1-.228-10.921 3.07 3.07 0 0 1 .316-1.668c.877.722.566 1.671.462 2.5a28.337 28.337 0 0 1 7.704-7.768c5.573-4.05 11.954-6.88 18.043-10.147a1.012 1.012 0 0 1 .877-.046Z"></path>
  <path fill="#282828" d="M331.113 119.428a1.38 1.38 0 0 1-.403-1.308c5.976-3.42 12.35-3.837 18.993-2.24.221.054.45.088.667.155 1.32.41 1.475.362 1.927-.608.608.737.382 1.65.584 2.474a47.205 47.205 0 0 1 .92 14.733c-.098 1.354-.165 2.71-.246 4.065-1.184-.06-1.56-1.039-2.132-1.739-2.048-2.5-3.867-5.161-6.018-7.589a25.514 25.514 0 0 0-14.292-7.943ZM198.633 123.726a35.107 35.107 0 0 1-.833 5.718c-.614-.359-.484-.987-.64-1.6-3.224 2.46-7.06 3.866-10.568 5.812-4.855 2.692-9.617 5.47-13.459 9.444-.627.648-1.2 1.541-2.399 1.376-.121-3.427-.01-6.85.15-10.273a2.339 2.339 0 0 1 .202-.605 53.992 53.992 0 0 1 12.994-7.062 85.394 85.394 0 0 1 12.828-3.065 1.876 1.876 0 0 1 1.725.255Z"></path>
  <path fill="#ccc" d="M487.914 474.416c-.55.379-.573 1.01-.749 1.534a40.096 40.096 0 0 1-6.809 11.87 35.917 35.917 0 0 1-4.995 5.576 5.691 5.691 0 0 1-2.101 1.256 1.273 1.273 0 0 1-1.653-1.452 10.685 10.685 0 0 1 .891-2.206 127.042 127.042 0 0 0 5.667-12.913c.213-.536.416-1.077.64-1.61a71.784 71.784 0 0 0 4.103-12.941 12.454 12.454 0 0 1 .429-1.447c.187-.545.571-.27.907-.167a21.978 21.978 0 0 0 1.195 4.317c.64 2.264 1.422 4.493 2.177 6.728a4.359 4.359 0 0 1 .298 1.455Z"></path>
  <path fill="#282828" d="m322.832 103.528-3.671-3.461c-.529-.804-.072-1.536.227-2.252 3.076-7.358 5.17-15.004 7.491-22.584.33-1.079.421-2.294 1.588-2.988a52.197 52.197 0 0 1 5.907 9.587 16.919 16.919 0 0 1-1.927 4.792c-2.514 5.214-5.838 10.044-8.178 15.343-.286.648-.597 1.338-1.437 1.563ZM172.899 170.495l-1.203-2.982-.066-1.023c2.723-9.383 8.963-16.372 16.897-22.27 2.932-2.179 6.126-4.065 8.703-6.66-.008.713.017 1.426-.028 2.136-.126 1.999-.28 3.997-.426 5.994a2.691 2.691 0 0 1-.367 1.442c-.683-.713-1.134-.213-1.689.222-8.286 6.501-16.098 13.392-21.166 22.57a1.234 1.234 0 0 1-.655.571ZM444.417 393.214c-2.5-2.406-5.11-4.721-7.468-7.245-2.206-2.362-4.69-4.492-6.67-7.043a5.146 5.146 0 0 0-.623-.629 73.293 73.293 0 0 1-7.576-8.563c-1.19-1.475-2.226-3.061-3.33-4.597a7.183 7.183 0 0 1 .822.329q7.976 4.363 15.945 8.74c1.716.4 2.477 1.672 3.253 3.01a24.997 24.997 0 0 1 2.35 5.337 2.556 2.556 0 0 0 .5 1.18 9.51 9.51 0 0 0 .802 2.888 49.772 49.772 0 0 1 1.995 6.593Z"></path>
  <path d="M303.624 55.13a11.508 11.508 0 0 1-.624 4.021 52.767 52.767 0 0 1-6.48 15.085c-2.65 4.276-5.37 8.503-8.366 12.568a61.933 61.933 0 0 1-4.287 5.29c-2.994 3.248-5.957 6.52-9.22 9.537a2.777 2.777 0 0 0-.364.541 13.38 13.38 0 0 1-4.04.896l-1.1-.21c-.067-.549.38-.785.709-1.026a44.78 44.78 0 0 0 8.06-7.58 6.174 6.174 0 0 1 .63-.627 54.023 54.023 0 0 0 7.062-8.149 124.518 124.518 0 0 0 11.155-17.509 41.512 41.512 0 0 0 3.651-10.595 7.145 7.145 0 0 0 .455-2.745 5.176 5.176 0 0 1 2.759.504Z"></path>
  <path fill="#eaab86" d="M351.273 169.925a36.79 36.79 0 0 0 1.473-5.107c.776.292 1.532.643 2.33.864a8.381 8.381 0 0 1 6.275 7.877 31.349 31.349 0 0 1-.314 4.714c-.239 2.214-.556 4.409-1.014 6.587a60.325 60.325 0 0 1-.985 3.975c-.743 2.631-1.527 5.252-2.295 7.877-.303-.05-.631-.101-.75-.406-1.242-3.195-1.947-6.423-1.159-9.859.316-1.378.288-2.83.562-4.24a20.883 20.883 0 0 1 .386-2.32 4.263 4.263 0 0 0 .092-1.708 14.525 14.525 0 0 0-1.502-5.983 4.18 4.18 0 0 0-3.099-2.27Z"></path>
  <path fill="#282828" d="M316.88 98.792c-1.347-.31-2.534-1.173-4.011-1.035a1.109 1.109 0 0 1-.12-.307c-.36-.93.228-1.675.56-2.458a82.173 82.173 0 0 0 6.178-29.271c.037-.983-.21-2.04.662-2.858a22.947 22.947 0 0 1 4.83 4.51 9.656 9.656 0 0 1 2.104 2.77c-1.776 3.295-2.485 6.92-3.532 10.43-1.69 5.665-3.543 11.273-5.756 16.775a2.493 2.493 0 0 1-.915 1.444Z"></path>
  <path d="M310.045 57.715c0 1.151-.05 2.304.008 3.452a36.906 36.906 0 0 1-1.06 9.164 62.04 62.04 0 0 1-2.995 10.137 69.425 69.425 0 0 1-5.824 11.913c-1.007 1.607-2.065 3.185-3.037 4.808a6.047 6.047 0 0 1-1.774 1.914l-.816.09a13.363 13.363 0 0 1-1.353-.153c-.33-.07-.518-.322-.324-.641.3-.496.63-.978.97-1.452a74.785 74.785 0 0 0 6.047-9.838 71.622 71.622 0 0 0 4.812-11.8c.803-2.688 1.312-5.426 2.035-8.122a10.201 10.201 0 0 0 .106-1.283 22.927 22.927 0 0 0 .025-8.515 4.023 4.023 0 0 1 .03-1.071.408.408 0 0 1 .42.117.912.912 0 0 0 .563.267 4.933 4.933 0 0 1 2.167 1.013ZM197.23 137.56a2.48 2.48 0 0 0-.377.751 1.675 1.675 0 0 1-.92 1.39 66.721 66.721 0 0 0-7.664 5.402 47.315 47.315 0 0 0-6.73 5.81c-4.017 4.452-7.594 9.159-9.07 14.983-.108.425-.442.544-.84.594a9.746 9.746 0 0 1-.555-4.21 7.928 7.928 0 0 1 1.135-3.447 49.79 49.79 0 0 1 5.982-8.333 36.537 36.537 0 0 1 4.18-4.243c2.75-2.245 5.47-4.532 8.447-6.517 1.734-1.157 3.496-2.277 5.232-3.432a2.243 2.243 0 0 1 1.237-.485ZM320.149 62.863c0 .358-.002.717.003 1.075a57.754 57.754 0 0 1-.855 11.316c-.718 3.938-1.368 7.89-2.406 11.76a43.923 43.923 0 0 1-4.142 10.436l-3.126-.08a53.137 53.137 0 0 0 5.533-15.84c.574-3.017 1.277-6.02 1.692-9.056a41.548 41.548 0 0 0 .548-8.344 13.494 13.494 0 0 1 .04-1.935c.033-.426.436-.537.803-.644a5.025 5.025 0 0 1 1.91 1.312Z"></path>
  <path fill="#010000" d="M207.922 106.518a1.32 1.32 0 0 1-.837-.686c-1.079-2.758-2.875-5.212-3.846-8.01a37.053 37.053 0 0 1-1.915-7.683 47.22 47.22 0 0 1-.359-7.053 40.244 40.244 0 0 1 .833-6.996 7.765 7.765 0 0 0 .076-1.069 14.576 14.576 0 0 1 3.21-2.67.805.805 0 0 1 .337.944c-.267.966-.557 1.928-.792 2.901-.39 1.61-.31 3.276-.553 4.885a29.195 29.195 0 0 0 .019 7.66 31.447 31.447 0 0 0 1.782 7.924c.8 2.08 1.836 4.078 2.771 6.111.09.194.228.42.483.303a.896.896 0 0 0 .417-.46c.173-.456.03-1.023.555-1.353a1.307 1.307 0 0 0 .078.402c.246.442 1.005.126 1.186.72.115.38.128.833.582 1.055.371.428.437.903-.048 1.24-.368.254-.641-.06-.812-.384l-.283-1.663-2.884 3.882Z"></path>
  <path fill="#282828" d="M327.935 111.642a49.146 49.146 0 0 1-3.255-5.554 4.554 4.554 0 0 1 .483-2.075c3.506-6.659 7.077-13.287 10.55-19.962a35.197 35.197 0 0 1 2.82 5.102c-3.916 4.82-6.004 10.433-7.982 16.112-.753 2.16-1.15 4.47-2.616 6.377Z"></path>
  <path d="M170.734 144.476c1.258-1.14 2.559-2.242 3.764-3.43a26.208 26.208 0 0 1 4.176-3.314c2.628-1.7 5.348-3.266 8.106-4.783 2.952-1.623 6.166-2.805 8.925-4.753a2.537 2.537 0 0 1 1.92-.653l.175 1.9-.09.768a40.299 40.299 0 0 1-5.067 2.857 117.997 117.997 0 0 0-13.427 7.627c-.493.327-.912.752-1.37 1.127a38.081 38.081 0 0 0-6.16 6.242c-.212.274-.47.515-.867.944l-.195-3.336ZM316.88 98.792a14.258 14.258 0 0 1 1.37-4.292c1.03-2.615 1.94-5.265 2.817-7.928 1.754-5.32 3.055-10.763 4.974-16.038.238-.653.617-.452 1.042-.392a6.09 6.09 0 0 1 1.384 2.1c-1.177 3.774-2.273 7.57-3.417 11.35a126.93 126.93 0 0 1-5.73 15.848 3.53 3.53 0 0 0-.159.627l-2.28-1.275ZM198.633 123.726a99.916 99.916 0 0 0-11.497 2.44 40.903 40.903 0 0 0-14.924 7.542.679.679 0 0 1-1.126-.11l.097-1.648a5.503 5.503 0 0 1 2.534-2.791 51.866 51.866 0 0 1 14.003-5.986c3.499-.936 7.09-1.402 10.596-2.262.66-.162.701.365.849.753a4.256 4.256 0 0 1-.532 2.062ZM331.113 119.428a1.836 1.836 0 0 1 1.506-.2 34.554 34.554 0 0 1 6.751 2.574 22.61 22.61 0 0 1 3.824 2.688 41.516 41.516 0 0 1 6.165 6.877 129.462 129.462 0 0 0 4.196 5.332l.005.858c-.735.62-.158 1.531-.556 2.233-.671.125-.944-.4-1.231-.758-1.602-1.99-3.2-3.986-4.72-6.033a44.21 44.21 0 0 0-6.546-7.118 17.948 17.948 0 0 0-5.26-2.945c-1.187-.47-2.387-.912-3.58-1.367a6.716 6.716 0 0 1-.554-2.14Z"></path>
  <path fill="#010000" d="M191.4 87.496a2.381 2.381 0 0 1 .814 1.722c.24 3.728 2.076 6.854 4.295 9.791 1.803 2.387 3.764 4.666 5.797 6.895a35.092 35.092 0 0 1 2.856 4.136 7.364 7.364 0 0 1-1.418 2.054 1.123 1.123 0 0 1-1.06-.677c-1.158-2.543-3.26-4.444-5.054-6.55a45.7 45.7 0 0 1-6.658-9.41 13.685 13.685 0 0 1-1.477-5.338 13.554 13.554 0 0 1 1.906-2.623ZM352.658 154.399a16.425 16.425 0 0 1-6.343-3.647 58.068 58.068 0 0 1-4.829-4.557c-1.816-1.91-3.5-3.933-5.229-5.917a16.84 16.84 0 0 1-1.86-3.15l-.601-4.217c.15-.157.396-.381.543-.198a24.524 24.524 0 0 1 1.526 2.127 64.712 64.712 0 0 0 5.25 6.757 94.876 94.876 0 0 0 6.717 6.755 12.837 12.837 0 0 0 3.605 2.613 1.749 1.749 0 0 1 1.203 2.045 2.114 2.114 0 0 0 .11.632ZM327.935 111.642a5.194 5.194 0 0 1 .493-2.08c1.173-3.325 2.322-6.658 3.567-9.959a40.58 40.58 0 0 1 5.094-9.555 1.755 1.755 0 0 1 1.444-.894 3.741 3.741 0 0 1 .959 1.633c.028 1.25-.916 2.102-1.485 3.09a46.878 46.878 0 0 0-3.727 7.827c-1.312 3.744-2.669 7.475-3.982 11.219-.197.563-.356 1.104-1.022 1.322ZM335.712 84.05a4.6 4.6 0 0 1-.726 2.656q-4.366 8.156-8.687 16.335l-1.619 3.047-.002-.013c-.062-.215-.268-.325-.4-.488l-1.446-2.06c1.135-2.27 2.14-4.61 3.437-6.797 1.785-3.012 3.393-6.103 5.044-9.177a31.987 31.987 0 0 0 1.898-3.913 3.269 3.269 0 0 1 1.163-1.81 7.5 7.5 0 0 1 1.338 2.22ZM179.34 105.136a3.285 3.285 0 0 1 1.99.976 31.323 31.323 0 0 0 7.968 3.688 41.901 41.901 0 0 1 8.849 3.986 9.123 9.123 0 0 1 2.883 2.722 6.226 6.226 0 0 1-.942 2.074c-.834-.607-1.66-1.223-2.502-1.821a33.913 33.913 0 0 0-9.085-4.326q-2.032-.677-4.029-1.448a30.93 30.93 0 0 1-5.288-2.91 1.82 1.82 0 0 1-.765-1.26 3.668 3.668 0 0 1 .92-1.681ZM352.297 115.427l-.228 1.564c-1.373-.28-2.667-.618-3.985-.795a37.513 37.513 0 0 0-6.054-.656 19.615 19.615 0 0 0-9.68 2.578 1.368 1.368 0 0 1-1.64.002 5.214 5.214 0 0 1-.582-2.122c1.303-.58 2.573-1.246 3.917-1.724a25.087 25.087 0 0 1 12.746-1c1.04.174 2.086.396 3.13.473a4.46 4.46 0 0 1 2.237.927Z"></path>
  <path fill="#2f2e2e" d="M340.807 325.832a1.371 1.371 0 0 0-.504 1.33q.008 1.697.01 3.394a1.441 1.441 0 0 1-.46 1.351 1.667 1.667 0 0 1-.56-1.36c-.516-7.66-3.59-14.468-7.93-20.824a28.358 28.358 0 0 0-7.103-7.519 3.543 3.543 0 0 1-1.728-1.935c.18-.394.236-.9.884-.879a37.688 37.688 0 0 1 5.564 4.448 29.57 29.57 0 0 1 4.189 5.087 48.022 48.022 0 0 1 5.026 9.143 43.332 43.332 0 0 1 1.65 5.137 11.279 11.279 0 0 0 .962 2.627Z"></path>
  <path fill="#282828" d="M277.518 53.39c.213.45.616.92.315 1.403a16.837 16.837 0 0 1-2.13 3.464 4.644 4.644 0 0 0-1.39 2.16c-.244.985-.96 1.182-1.878 1.117a2.276 2.276 0 0 1 .715-1.295 29.682 29.682 0 0 0 3.483-5.234 2.875 2.875 0 0 0 .406-1.636Z"></path>
  <path fill="#f7bc9a" d="m332.986 258.938.4-.448a.545.545 0 0 1-.4.448Z"></path>
  <path fill="#282828" d="M307.878 56.702a.448.448 0 0 1-.564-.268.428.428 0 0 1 .564.268ZM105.47 406.243a5.07 5.07 0 0 0 2.726-1.483c2.276-2.03 4.915-3.61 7.373-5.41 3.298-2.414 6.69-4.717 10.042-7.065.732-.513 1.464-1.027 2.21-1.522 4.038-2.684 8.067-5.379 12.127-8.033 1.997-1.307 4.07-2.508 6.074-3.806 1.816-1.176 3.59-2.408 5.369-3.635 1.471-1.016 2.948-2.028 4.374-3.098 2.078-1.56 4.195-3.072 6.267-4.64a159.977 159.977 0 0 0 12.694-11.154c.367-.344.651-.816 1.302-.885 1.024 1.347 1.421 2.99 2.172 4.473 1.045 2.066 1.875 4.231 2.753 6.37.934 2.272 1.779 4.578 2.732 6.843 1.882 4.473 3.194 9.123 4.851 13.664q2.228 6.105 4.478 12.203c1.096 2.984 1.756 6.078 2.6 9.126.71 2.562 1.438 5.123 2.249 7.658q2.568 8.026 5.241 16.023c1.214 3.626 2.807 7.122 4.278 10.66a112.964 112.964 0 0 0 5.382 10.473c1.178 2.164 2.64 4.19 3.931 6.3 1.52 2.486 2.99 4.999 4.491 7.495.525.874 1.14 1.704 1.606 2.604a89.35 89.35 0 0 1 7.863 20.592c.556 2.37.972 4.769 1.411 7.162a10.83 10.83 0 0 1 .049 1.723 9.486 9.486 0 0 0 .277 2.558 9.902 9.902 0 0 1 .178 2.351 19.002 19.002 0 0 0 .358 4.492 13.055 13.055 0 0 1 .112 3.222c-.61.022-1.22.061-1.83.061q-43.548.005-87.096.002c-.458 0-.916-.009-1.375-.014-1.074-3.443-2.195-6.875-3.214-10.333-2.815-9.55-5.47-19.144-8.724-28.573-2.027-5.874-4.152-11.718-6.272-17.563-3.254-8.972-6.397-17.976-9.296-27.057a96.623 96.623 0 0 0-9.2-20.618c-.223-.37-.377-.777-.563-1.166Z"></path>
  <path fill="#c7cccc" d="M66.178 384.164c.227-2.84 2.323-3.974 4.862-4.638a4.8 4.8 0 0 1 2.462-.094 3.56 3.56 0 0 1-1.433 1.312c-1.302.838-2.576 1.714-3.867 2.568a3.758 3.758 0 0 1-2.024.852Z"></path>
  <path fill="#ccc" d="M448.903 511.543a15.19 15.19 0 0 0 .553-3.358 2.181 2.181 0 0 1 .371-1.419c.128.07.301.227.375.193a1.168 1.168 0 0 0 .48-.398c2.552-3.99 5.291-7.868 7.766-11.906 1.798-2.934 3.18-6.035 4.738-9.066a5.916 5.916 0 0 1 1.577-2.087c.811-.63 1.666-.485 1.998.424a3.236 3.236 0 0 1 .275 2.708 1.825 1.825 0 0 0-.166.839c.08 2.84-.894 5.505-1.522 8.225a63.877 63.877 0 0 1-1.301 4.78 27.225 27.225 0 0 1-1.454 3.842 49.517 49.517 0 0 1-4.02 7.242ZM476.906 511.558c-2.495.003-4.99.012-7.485.006-.59 0-1.229.118-1.669-.426.653-.69 1.316-1.374 1.956-2.075a16.343 16.343 0 0 0 3.056-4.982 5.304 5.304 0 0 1 1.045-1.881 1.689 1.689 0 0 1 2.251-.222 3.416 3.416 0 0 1 1.697 2.448c.142 2.409.494 4.87-.85 7.132Z"></path>
  <path fill="#282828" d="M234.399 511.508a64.45 64.45 0 0 0 .792-6.592 29.708 29.708 0 0 0 .57-5.114c-.04-1.104.558-2.083.496-3.185a7.594 7.594 0 0 1 .333-3.197 4.988 4.988 0 0 0 .105-1.714q.008-7.99.002-15.979a5.211 5.211 0 0 0-.288-2.339.955.955 0 0 1-.109-.415 49.37 49.37 0 0 0-.495-5.99c-.143-1.494.089-3.006-.413-4.49a6.757 6.757 0 0 1-.068-1.932 8.474 8.474 0 0 0-.364-3.41 2.452 2.452 0 0 1-.09-.854 67.513 67.513 0 0 0-1.613-10.38 42.075 42.075 0 0 0-1.988-7.27c-.57-1.407-1.135-2.82-1.818-4.179-2.122-4.222-4.42-8.37-6.42-12.642-1.78-3.804-3.61-7.59-5.282-11.444q-2.47-5.689-4.479-11.517a127.583 127.583 0 0 1-3.7-13.29c-1.12-4.967-2.273-9.938-3.713-14.829a84.858 84.858 0 0 0-4.894-12.959c-.788-1.633-1.554-3.277-2.396-4.887a119.075 119.075 0 0 0-7.544-12.297 1.86 1.86 0 0 1 .04-2.525c.766-.979 1.629-1.89 2.44-2.838.523-.613 1.025-1.243 1.543-1.86a.938.938 0 0 1 1.218-.216 4.503 4.503 0 0 1 1.417 1.076 67.114 67.114 0 0 0 10.956 8.404c2.554 1.677 5.162 3.284 7.775 4.88 1.212.74 2.48 1.405 3.747 2.06q3.309 1.71 6.65 3.362c3.51 1.74 7.089 3.367 10.53 5.22 2.92 1.572 5.94 2.947 8.935 4.371 5.242 2.492 10.318 5.256 15.376 8.06a110.784 110.784 0 0 1 9.41 6.072c1.464 1.017 2.688 2.34 4.154 3.355a56.39 56.39 0 0 1 5.853 5.134 49.428 49.428 0 0 1 5.536 6.275c2.021 2.603 3.877 5.32 5.84 7.964 2.528 3.405 5.123 6.766 7.63 10.185 3.115 4.251 6.27 8.493 8.475 13.253a75.023 75.023 0 0 1 3.98 9.157 33.366 33.366 0 0 1 1.703 7.105 59.706 59.706 0 0 0 1.009 6.567c.428 2.177 1.027 4.324 1.524 6.49 1.105 4.82 2.304 9.626 3.237 14.476.431 2.24.882 4.492 1.097 6.78.193 2.055.707 4.084 1.068 6.127.248 1.408.474 2.82.714 4.23.36 2.114.56 4.253.795 6.375.203 1.844.55 3.678.648 5.546.113 2.14.246 4.296.499 6.417a50.19 50.19 0 0 1 .359 4.92 2.803 2.803 0 0 0 .088 1.07 9.544 9.544 0 0 1 .396 3.409c-.762.021-1.523.061-2.285.061q-43.348.005-86.697 0c-.761 0-1.523-.037-2.284-.057Z"></path>
  <path fill="#ccc" d="M322.532 300.27a31.866 31.866 0 0 1 5.824 4.835 43.048 43.048 0 0 1 10.054 17.94 8.315 8.315 0 0 0 .328 1.252 15.91 15.91 0 0 1 1.114 7.61 5.986 5.986 0 0 0-.517 2.925 5.278 5.278 0 0 0-.284 1.028 40.735 40.735 0 0 0 1.618 15.802 88.53 88.53 0 0 0 4.712 11.685 8.573 8.573 0 0 1 1.241 2.737c.078.972-.913 1.764-1.465 2.615a21.346 21.346 0 0 0-3.076 7.39c-.273 1.342-.567 2.683-.746 4.037a82.934 82.934 0 0 0-.505 18.096c.119 1.36.295 2.715.445 4.072-.956.201-.814-.593-1.07-1.037a50.563 50.563 0 0 1-2.208-5.351 49.366 49.366 0 0 1-2.425-11.591c-1.02-10.002-1.611-20.047-3.269-29.984a28.539 28.539 0 0 0-3.5-10.203c-.823-1.367-1.75-1.834-3.322-.947a28.527 28.527 0 0 1-5.015 2.083 10.676 10.676 0 0 0-5.644 4.508c-.949 1.454-.798 2.4.776 3.38a104.405 104.405 0 0 1 9.474 6.405c4.831 3.795 7.234 8.411 5.927 14.44a29.775 29.775 0 0 0-.166 5.165c-.033.843.142 1.748-.63 2.427-.61-1.148-1.23-2.293-1.83-3.446q-1.308-2.516-2.594-5.043a30.67 30.67 0 0 0-5.423-7.44 23.053 23.053 0 0 0-13.196-6.8 33.415 33.415 0 0 0-3.872-.19c-.168-.169-.271-.43-.123-.573 2.914-2.824 3.513-6.787 5.578-10.032a19.756 19.756 0 0 1 8.033-7.139 4.893 4.893 0 0 0 2.687-2.746c1.815-2.105 4.122-3.815 5.332-6.406 2.223-4.757.913-9.275-.765-13.815-.52-1.405-1.497-2.666-1.597-3.835-.22 1.234-.22 1.234-1.313.968a8.894 8.894 0 0 1 .378-6.07 23.317 23.317 0 0 0 .496-5.012 36.484 36.484 0 0 1 .538-3.74Z"></path>
  <path fill="#eaab86" d="M319.745 338.332a2.906 2.906 0 0 1-2.121 2.753 19.545 19.545 0 0 0-7.067 5.343 17.048 17.048 0 0 0-2.646 4.26 19.922 19.922 0 0 0-.853 1.992 10.97 10.97 0 0 1-3.6 5.604c-.101.077-.117.255-.171.387a40.363 40.363 0 0 1-10.398-.678c-.297-.059-.598-.103-.89-.178-2.068-.537-2.903-1.423-3.044-3.49-.097-1.42-.011-2.852-.007-4.279a11.135 11.135 0 0 1 4.4-1.683 36.986 36.986 0 0 0 10.447-4.167c1.579-.877 3.056-1.87 4.55-2.85a9.438 9.438 0 0 0 3.361-4.003 37.393 37.393 0 0 0 2.9-9.238c.614-3.388 1.56-6.695 2.51-10.009a38.372 38.372 0 0 1 3.248-7.782c.277-.51.501-1.06 1.134-1.291l.087 6.452a2.786 2.786 0 0 1 .43 2.672 34.485 34.485 0 0 0-.794 12.202 12.24 12.24 0 0 1-.488 5.773 6.992 6.992 0 0 1-.55 1.3 7.81 7.81 0 0 1-.438.91Z"></path>
  <path fill="#f6f6f6" d="M330.204 381.59c.006-1.583.001-3.166.023-4.748a33.964 33.964 0 0 1 .322-4.065c.376-2.801.302-5.63-1.51-8.097a22.057 22.057 0 0 0-3.987-4.378c-3.563-2.835-7.494-5.167-11.317-7.648-.797-.517-.822-.602-.449-1.387a12.07 12.07 0 0 1 5.409-5.938 5.58 5.58 0 0 1 1.238-.556c2.556-.578 4.76-1.897 7.1-2.933a3.55 3.55 0 0 1 .626-.154c2.445 2.48 3.48 5.563 4.369 8.69a43.472 43.472 0 0 1 1.468 7.813c.25 2.632.629 5.257.917 7.89.343 3.133.832 6.25.863 9.408.735 2.297.108 4.734.815 7.036a2.64 2.64 0 0 1 .069.858c-.091 2.538.692 4.963 1.077 7.439.197 1.272.513 2.528.804 3.786a11.074 11.074 0 0 0 .431 1.219c.16.54.678 1.197-.48 1.307-.889-1.822-1.819-3.626-2.656-5.468-1.17-2.577-2.587-5.035-3.944-7.523-.45-.824-.795-1.7-1.188-2.552Z"></path>
  <path fill="#d8d5d5" d="M337.991 397.132c.587-.297.447-.83.481-1.307.341.228.378.58.484.93a17.644 17.644 0 0 0 2.32 5.539 13.284 13.284 0 0 1 .915 2.996c.146.452-.065.56-.495.455l-3.33-7.412a2.166 2.166 0 0 1-.375-1.201Z"></path>
  <path fill="#9d9595" d="m341.696 405.745.495-.455a1.987 1.987 0 0 1 .452 1.535.598.598 0 0 1-.477.596l-.47-1.676Z"></path>
  <path fill="#a47678" d="M309.61 234.308a9.214 9.214 0 0 1-1.629 3.307 40.814 40.814 0 0 1-14.472 12.613 28.65 28.65 0 0 1-10.843 3.14 103.97 103.97 0 0 1-6.377.365 40.523 40.523 0 0 1-15.355-2.858 80.753 80.753 0 0 1-12.465-5.878 24.148 24.148 0 0 1-5.667-4.632 4.389 4.389 0 0 0-.952-.925c-1.452-.826-1.195-2.07-.858-3.242a5.574 5.574 0 0 1 1.492-2.4 19.856 19.856 0 0 1 3.618-2.959 36.6 36.6 0 0 1 8.205-3.748 23.486 23.486 0 0 1 10.603-.719 7.614 7.614 0 0 0 1.135.113q5.266.015 10.532.01a4.559 4.559 0 0 1 2.35-.724 78.295 78.295 0 0 1 14.965-1.134c6.072.27 10.801 3.06 14.78 7.16a2.448 2.448 0 0 1 .937 2.51Z"></path>
  <path fill="#f5b692" d="M309.61 234.308a14.91 14.91 0 0 0-3.369-3.977 22.643 22.643 0 0 0-6.292-3.797 15.111 15.111 0 0 0-6.17-1.31c-1.673.018-3.352-.066-5.018.043-2.112.14-4.21.467-6.32.64-1.96.16-3.869.762-5.864.589a2.774 2.774 0 0 0-.009-.642c-.87-3.527-.288-7.106-.42-10.659a8.321 8.321 0 0 1 .348-1.663 1.067 1.067 0 0 0-.774-1.166c-.622-.202-1.405.122-1.893-.515.643-.674 1.523-.49 2.329-.564a7.224 7.224 0 0 0 4.55-1.604 9.866 9.866 0 0 1 2.75-2.59c2.8-2.052 5.972-1.757 9.171-1.297l3.208.001c.845.703 1.266-.2 1.657-.52a3.402 3.402 0 0 1 3.776-.393 107.401 107.401 0 0 1 10.116 3.949 14.004 14.004 0 0 1 6.03 5.679 41.493 41.493 0 0 1 5.494 14.922 1.789 1.789 0 0 0 .43.976c.001 1.36-.081 2.726.025 4.078.115 1.464-.478 2.81-.598 4.227a1.681 1.681 0 0 1-.276.584.927.927 0 0 1-1.323.433c-.985-.369-1.91-.851-2.913-1.203a33.986 33.986 0 0 1-8.646-4.221Z"></path>
  <path fill="#eaab86" d="M280.709 209.683c.233.485.361.933-.33 1.205a14.806 14.806 0 0 1-6.55.963 7.299 7.299 0 0 1-4.986-2.31c-.805-.863-1.698-1.657-2.584-2.448a7.783 7.783 0 0 0-5.754-2.177 6.715 6.715 0 0 1-4.004-.57c-.45-.272-.835-.077-1.258.16a74.914 74.914 0 0 1-3.38 1.767c-2.252 1.116-4.77 1.437-7.175 2.094a30.908 30.908 0 0 0-3.493.987 12.506 12.506 0 0 0-5.812 4.33 30.375 30.375 0 0 0-4.314 8.278 11.97 11.97 0 0 1-.559 1.405.453.453 0 0 1-.36.202c-.262-.029-.323-.258-.299-.465a4.468 4.468 0 0 1 .18-.837 31.218 31.218 0 0 1 5.574-10.058 45.099 45.099 0 0 1 6.047-5.82c3.797-3.238 8.073-5.846 12.152-8.712a14.47 14.47 0 0 0 4.153-4.755 18.197 18.197 0 0 0 2.155-6.518 56.634 56.634 0 0 0 .898-8.742 10.054 10.054 0 0 0-.472-3.392c-.847-.926-.851-2.108-1.037-3.212a53.27 53.27 0 0 0-2.15-8.278 7.306 7.306 0 0 0-1.92-3.097c.926-2.902 1.712-5.845 2.763-8.713 1.069.91 2.111 1.85 3.213 2.724a17.844 17.844 0 0 1 4.128 5.375 47.36 47.36 0 0 1 4.652 12.104c.54 2.09.825 4.215 1.288 6.314a8.117 8.117 0 0 1 .063 1.722c.004 4.678-.017 9.357.011 14.035a26.431 26.431 0 0 0 1.95 9.656 6.562 6.562 0 0 0 1.274 2.027c1.195 1.276 2 2.867 3.66 3.784.74.408 1.567.553 2.276.972Z"></path>
  <path fill="#f5b692" d="M332.981 164.366a2.795 2.795 0 0 1 .966 1.612c.14 1.2.245 2.42.464 3.596a45.547 45.547 0 0 0 .682 4.866 1.68 1.68 0 0 1 .137.627c-.234 2.02.567 3.962.503 5.97a3.138 3.138 0 0 0 .172 1.266 7.715 7.715 0 0 1 .272 2.765 22.842 22.842 0 0 0-4.33.222c-.607.15-1.346-.255-2.005-.199-2.61.225-5.137-.635-7.735-.467a18.497 18.497 0 0 0-5.9-.407 46.923 46.923 0 0 1-11.73-1.32 52.924 52.924 0 0 1-11.57-3.953 21.33 21.33 0 0 1-8.037-6.54 10.776 10.776 0 0 1-1.774-4.159 34.534 34.534 0 0 1-1.046-9.377 9.427 9.427 0 0 1 1.679-4.848 5.443 5.443 0 0 1 3.375-2.089 12.47 12.47 0 0 0 1.997-.92c1.016 1.737-.068 3.48-.03 5.226.039 1.866.542 3.193 2.574 3.71 1.137.548 2.372.312 3.567.396.724.052 1.72-.112 1.91.734.159.703-.74.986-1.318 1.273a21.323 21.323 0 0 0-4.277 2.79 7.502 7.502 0 0 0-1.43 1.651c-.993 1.517-.866 1.791 1.034 2.232a3.079 3.079 0 0 1 1.05.378c4.104 6.013 9.89 8.917 17.533 8.666a13.077 13.077 0 0 0 9.33-3.965c1.096-1.133 2.783-1.853 3.205-3.534a4.245 4.245 0 0 0-.021-1.189 3.396 3.396 0 0 0-.215-.567 8.796 8.796 0 0 1-.314-.568 22.657 22.657 0 0 0-7.38-5.35 13.166 13.166 0 0 1-1.407-.719c-.427-.276-1.055-.514-.96-1.085.119-.73.891-.715 1.46-.731 3.735-.112 7.472-.017 11.207-.065 3.144-.031 5.532 1.642 7.983 3.164a.73.73 0 0 1 .38.908ZM255.395 159.501a1.803 1.803 0 0 1 1.857 1.286 45.932 45.932 0 0 1 2.871 10.528 12.201 12.201 0 0 1 .415 2.955c-.466.366-.944.72-1.395 1.102a46.339 46.339 0 0 1-13.372 8.096 52.735 52.735 0 0 1-8.539 2.296 25.092 25.092 0 0 1-5.875.623c-2.747-.097-5.5-.063-8.25-.011a35.172 35.172 0 0 1-5.854-.725 8.036 8.036 0 0 1-5.11-3.352 10.887 10.887 0 0 1-2.222-4.21 15.684 15.684 0 0 1-.507-7.003c.376-1.747.688-3.508 1.191-5.229a3.659 3.659 0 0 1 .854-1.955 1.715 1.715 0 0 0 2.562.1 13.196 13.196 0 0 1 5.347-2.36 91.47 91.47 0 0 1 17.645-2.259c5.255-.091 10.523.346 15.766-.361a3.28 3.28 0 0 1 2.616.48Z"></path>
  <path fill="#282828" d="M255.395 159.501c-4.855.44-9.725.54-14.598.592a79.014 79.014 0 0 0-10.262.33c-3.309.467-6.626.909-9.907 1.519a14.4 14.4 0 0 0-7.455 3.498 2.025 2.025 0 0 1-.556.367.606.606 0 0 1-.776-.246c-.382-.5-.23-1.11-.382-1.659.307-.655.64-1.3.916-1.966a21.419 21.419 0 0 1 3.443-5.567 11.911 11.911 0 0 1 6.586-4.04 43.13 43.13 0 0 1 4.95-.84 130.534 130.534 0 0 1 17.805-1.092c4.35.108 8.699.196 13.035.573a1.895 1.895 0 0 1 .126.626 26.708 26.708 0 0 1-1.935 6.77 5.132 5.132 0 0 1-.99 1.135ZM291.729 160.464c-.442-.105-.88-.23-1.326-.313a2.153 2.153 0 0 1-1.91-2.103 13.798 13.798 0 0 1-.001-2.571c.152-1.493.4-2.978.61-4.466a8.562 8.562 0 0 1 3.511-.82 127.118 127.118 0 0 1 15.526.198 77.798 77.798 0 0 1 11.933 1.81 17.67 17.67 0 0 1 8.236 4.4 70.105 70.105 0 0 1 4.114 4.313c.37.177.265.616.53.85v.001c.035.677.62 1.078.92 1.622.394.715.224.908-.891.981a33.621 33.621 0 0 0-4.784-2.695 6.575 6.575 0 0 0-3.413-.843c-4.908-.074-9.775-.405-14.717.386-4.002.64-8.196.088-12.255-.338-2.033-.214-4.097.166-6.083-.412Z"></path>
  <path d="M295.214 54.373a19.016 19.016 0 0 1-1.007 5.022 22.794 22.794 0 0 1-4.322 8.013c-1.148 1.428-2.216 2.914-3.395 4.319-.707.842-1.562 1.574-2.342 2.363a77.445 77.445 0 0 1-10.125 8.368c-1.453 1.039-2.706 2.33-4.184 3.33-2.367 1.603-4.27 3.674-6.486 5.432a28.588 28.588 0 0 0-8.32 9.616 17.774 17.774 0 0 0-1.897 5.501 11.165 11.165 0 0 1-.385 1.459 1.989 1.989 0 0 1-1.343.424c-1.375-.278-1.529-.376-1.387-1.444a21.145 21.145 0 0 1 1.836-5.972 29.988 29.988 0 0 1 9.983-11.846 4.847 4.847 0 0 0 .679-.578c1.883-1.995 4.207-3.535 6.251-5.367a45.88 45.88 0 0 1 5.13-3.935 59.673 59.673 0 0 0 7.19-5.975 56.213 56.213 0 0 0 7.617-8.839 20.955 20.955 0 0 0 3.461-8.805c.189-1.09.215-1.148 1.447-1.161.533-.006 1.066.048 1.6.075Z"></path>
  <path fill="#282828" d="M219.713 109.93a2.264 2.264 0 0 1 .027.408q.207.21.402.43c.1.356.232.724.669.786a6.67 6.67 0 0 0 2.803-.081 28.81 28.81 0 0 1-2.906-13.844c.733-2.212.609-4.652 1.93-6.85a1.81 1.81 0 0 1 .287 1.53 19.288 19.288 0 0 0 1.13 6.329 18.938 18.938 0 0 0 3.606 5.952c.818 1.027 1.805 1.94 2.7 2.915a8.16 8.16 0 0 0 3.454 2.03 10.907 10.907 0 0 1 3.362 1.251 9.1 9.1 0 0 1-1.312.3c-2.416.2-4.835.363-7.252.548-1.434.11-2.87.21-4.299.362a14.266 14.266 0 0 1-6.893-.747c.674-.578 1.247-1.313 2.292-1.32Z"></path>
  <path fill="#eaab86" d="M323.34 230.41a1.463 1.463 0 0 1-.904-1.147 80.511 80.511 0 0 0-.894-4.184 27.438 27.438 0 0 0-2.704-7.039c-.61-1.074-1.149-2.184-1.74-3.267a12.393 12.393 0 0 0-5.533-5.236 53.111 53.111 0 0 0-8.151-3.304c-.578-.175-1.17-.318-1.733-.53a9.819 9.819 0 0 0-2.295-.907c-.883-.084-1.219.982-1.968 1.327-.547.251-1.087.516-1.638.76-.208.091-.473.126-.61-.08-.143-.21.027-.389.201-.542.165-.144.311-.308.466-.464a7.226 7.226 0 0 0 2.298-5.43 7.755 7.755 0 0 0-2.552-5.795 26.818 26.818 0 0 1-2.733-3.162 9.55 9.55 0 0 1-1.873-5.431c-.005-.072.188-.17.304-.23a.218.218 0 0 1 .197.046c.232.526.45 1.057.674 1.586a22.149 22.149 0 0 0 1.02 2.376 15.863 15.863 0 0 0 3.076 3.708 14.339 14.339 0 0 1 3.615 4.906 2.382 2.382 0 0 0 .925 1.16c1.915 1.29 3.795 2.626 5.71 3.916a49.12 49.12 0 0 1 7.042 5.428 23.43 23.43 0 0 1 4.384 5.727 66.87 66.87 0 0 1 3.191 6.43 44.419 44.419 0 0 1 2.219 8.517 4.736 4.736 0 0 1 .006.862Z"></path>
  <path fill="#282828" d="M219.713 109.93c-.603.688-1.142 1.476-2.293 1.319-.803.088-1.407-.51-2.17-.562-.465-.35-.955-.673-1.39-1.053a7.267 7.267 0 0 1-2.77-5.335c.81.187.81.187.86-.856.602-.433.622-1.14.823-1.727a37.482 37.482 0 0 1 5.387-9.878 1.164 1.164 0 0 1 .944-.605c-.181 1.484-.603 2.918-.867 4.373a23.764 23.764 0 0 0 .344 9.973c.353 1.456.754 2.9 1.132 4.35Z"></path>
  <path fill="#eaab86" d="M216.524 225.576a7.792 7.792 0 0 0-.006-.975 3.46 3.46 0 0 1 1.322-3.031c1.828-1.844 4.081-3.228 5.921-5.047a1.531 1.531 0 0 1 .387-.222.729.729 0 0 1 1.04.492 2.31 2.31 0 0 1-.17 1.475 10.73 10.73 0 0 1-.951 1.715 14.71 14.71 0 0 0-1.356 2.24c-2.079 3.892-2.035 3.894-2.083 8.001a6.602 6.602 0 0 0 .96 3.698 1.915 1.915 0 0 1 .253.593.426.426 0 0 1-.124.37.421.421 0 0 1-.39-.011c-1.649-2.05-3.445-4-4.485-6.44a8.541 8.541 0 0 1-.318-2.858ZM282.71 275.757a6.511 6.511 0 0 1-1.21-.01c-2.62-.64-5.29-.39-7.942-.4a4.302 4.302 0 0 1-3.502-1.704c-.136-.167-.268-.398-.08-.584a1.036 1.036 0 0 1 .56-.28 2.55 2.55 0 0 1 1.13 0 5.751 5.751 0 0 0 4.178-.354 7.88 7.88 0 0 1 5.76.072 18.81 18.81 0 0 0 4.614 1.116c.41.045.77.174.81.597.037.406-.28.645-.644.796a6.947 6.947 0 0 1-3.674.751Z"></path>
  <path fill="#eaac87" d="M335.516 223.166a6.878 6.878 0 0 1-.405 1.43 20.332 20.332 0 0 0-1.968 6.135 12.782 12.782 0 0 0 .504 6.988c.171.474.362.944.487 1.43.045.173-.08.385-.127.58-.21-.049-.504-.032-.613-.158a14.501 14.501 0 0 1-1.184-1.57 15.146 15.146 0 0 1-1.962-5.451 7.252 7.252 0 0 1 1.025-4.771 12.58 12.58 0 0 1 3.528-4.428 3.055 3.055 0 0 1 .715-.185Z"></path>
  <path fill="#ecae8a" d="M306.017 257.073a3.473 3.473 0 0 1 1.008-1.865 27.008 27.008 0 0 0 3.509-7.64 36.35 36.35 0 0 0 1.411-5.828 2.75 2.75 0 0 1 .472-.964.468.468 0 0 1 .37-.174c.262.031.334.235.279.459-.595 2.43-1.096 4.885-1.819 7.28a31.884 31.884 0 0 1-3.048 6.695 5.67 5.67 0 0 1-2.182 2.037Z"></path>
  <path fill="#edad89" d="M292.629 205.796c-.073.344-.114.76-.626.697a8.12 8.12 0 0 1-1.742-.363 5.82 5.82 0 0 0-5.83 1.13c-.172.132-.335.34-.53.371-.419.07-.402-.276-.443-.539a6.593 6.593 0 0 1 6.339-2.062 7.804 7.804 0 0 1 2.832.766Z"></path>
  <path fill="#edae8a" d="M229.551 239.328a3.76 3.76 0 0 1 1.056 1.727 8.309 8.309 0 0 0 2.4 3.838 1.524 1.524 0 0 1 .303.55.196.196 0 0 1-.042.192c-.118.07-.277.177-.384.149a2.426 2.426 0 0 1-1.354-1.092 13.56 13.56 0 0 1-2.139-4.707c-.035-.17.086-.37.16-.657Z"></path>
  <path fill="#eaab86" d="M332.953 161.762a.977.977 0 0 1-.53-.85.716.716 0 0 1 .53.85Z"></path>
  <path fill="#282828" d="M177.048 179.546a20.344 20.344 0 0 1-3.064-5.753c1.648-5.217 5.088-9.452 8.758-13.457 3.975-4.338 8.628-8.074 13.13-11.931a.514.514 0 0 1 .432-.05 28.93 28.93 0 0 1-.887 6.06c-1.481 2.882-4.061 4.963-6.119 7.424-4.647 5.56-9.101 11.23-12.25 17.707ZM187.207 194.109a36.19 36.19 0 0 1-4.703-5.966c1.464-5.558 4.78-10.203 8.26-14.753.626-.817.947-2.03 2.335-2.15-.004.64.034 1.28-.017 1.916-.287 3.544-.596 7.087-.897 10.631-1.564 3.482-3.379 6.856-4.978 10.322Z"></path>
  <path d="M196.304 148.355a15.32 15.32 0 0 1-3.942 3.788c-.584.458-1.187.896-1.727 1.4q-3.089 2.889-6.165 5.788a48.024 48.024 0 0 0-7.141 8.905 22.728 22.728 0 0 0-2.701 4.973c-.08.235-.423.392-.644.585a12.048 12.048 0 0 1-1.085-3.299c.435-1.794 1.639-3.229 2.618-4.746a53.913 53.913 0 0 1 4.13-5.385 99.249 99.249 0 0 1 9.19-8.96c2.224-2.037 4.707-3.823 7.079-5.715.042-.033.148.003.282.01l.21 1.433Z"></path>
  <path fill="#282828" d="M180.726 185.571a16.55 16.55 0 0 1-2.727-4.39c1.353-1.259 1.659-3.046 2.569-4.53a103.567 103.567 0 0 1 12.25-16.06c.456-.494.754-1.337 1.767-1-.075.77-.1 1.549-.235 2.31a37.182 37.182 0 0 0-.774 5.656 2.77 2.77 0 0 1-.343 1.637 1.128 1.128 0 0 1-.553-1.07c-4.266 5.16-8.25 10.505-11.014 16.57a1.397 1.397 0 0 1-.94.877Z"></path>
  <path fill="#010000" d="M194.585 159.592a10.82 10.82 0 0 0-2.583 2.671c-1.917 2.12-3.609 4.42-5.418 6.628a66.731 66.731 0 0 0-5.457 7.924c-.823 1.366-1.426 2.848-2.151 4.267-.242.474-.637.181-.977.1a4.54 4.54 0 0 1-.951-1.636c-.09-1.68.88-3.01 1.7-4.365a77.034 77.034 0 0 1 7.078-9.953c1.699-2.006 3.22-4.142 5.124-6.003 1.203-1.175 2.21-2.53 3.295-3.81a3.545 3.545 0 0 1 1.172-1l-.034.851c-.373.57-.013 1.256-.326 1.835a5.28 5.28 0 0 1-.472 2.49Z"></path>
  <path fill="#010101" d="M180.726 185.571c2.794-6.803 7.223-12.65 11.983-18.306.598.141.353.565.402.869.057.351.083.707.122 1.06l-.134 2.047a72.921 72.921 0 0 0-7.677 11.147c-.744 1.406-1.306 2.898-1.945 4.352-.231.527-.379 1.101-.973 1.403a8.069 8.069 0 0 1-1.778-2.572Z"></path>
  <path fill="#020202" d="M187.207 194.109c-.25-1.373.58-2.495 1.09-3.645.902-2.034 2.025-3.983 3.094-5.949.16-.293.524-.488.794-.728l-.004 5.168a16.538 16.538 0 0 1-1.68 5.249c-.39.674-.617 1.717-1.898 1.21a3.645 3.645 0 0 1-1.396-1.305Z"></path>
  <path fill="#2b2d2b" d="M188.603 195.414a1.099 1.099 0 0 0 1.024-.677c.576-1.363 1.136-2.733 1.772-4.07.27-.568.23-1.263.782-1.712.022 1.643.105 3.289.05 4.93-.054 1.61-.392 1.9-2.276 2.425-.394-.374-1.099-.332-1.352-.896Z"></path>
  <path fill="#282828" d="M195.057 157.101c-.123-.648-.258-1.298.326-1.835a2.25 2.25 0 0 1-.326 1.835ZM233.948 94.373l-.001 1.928a1.977 1.977 0 0 1-.499 1.582 1.047 1.047 0 0 0 .081 1.691c.268.247.469.557.72.822.29.302.67.225.909-.174.216-.36.155-.86.62-1.097a3.463 3.463 0 0 1-.056 1.072 10.61 10.61 0 0 0-.394 3.839c-.003.575.014 1.15-.006 1.726-.011.342.067.753-.394.914a1.325 1.325 0 0 1-1.065-.258 2.303 2.303 0 0 1-1.245-2.173c.007-2.854-.52-5.757.765-8.515.207-.442.041-1.026.565-1.357ZM267.395 66.278a1.744 1.744 0 0 1-.917 1.79 30.107 30.107 0 0 1-4.761 2.875 3.144 3.144 0 0 0-.95.57 14.05 14.05 0 0 1-4.354 2.623 1.55 1.55 0 0 0-.58.318c-.818.995-1.95.972-3.106.9a7.05 7.05 0 0 1 2.698-1.871 83.024 83.024 0 0 0 10.766-6.672 2.187 2.187 0 0 1 1.204-.533ZM240.806 84.426c.41.604.564 1.254-.175 1.677-1.317.752-1.717 2.294-3.053 3.022a1.017 1.017 0 0 0-.38.737c-.092 1.144-1.053 1.865-1.506 2.832-.213.455-.818.602-1.299.81a20.805 20.805 0 0 1 6.413-9.078Z"></path>
  <path fill="#282828" d="M252.728 75.35a1.555 1.555 0 0 1-.5 1.15 10.601 10.601 0 0 1-4.036 2.667 2.868 2.868 0 0 0-1.542 1.132c-.465.674-.53.635-1.713.236 1.29-1.726 3.224-2.72 5.044-3.805a7.321 7.321 0 0 1 2.747-1.38ZM249.539 81.852a1.822 1.822 0 0 1 .852-1.845 35.016 35.016 0 0 1 5.457-3.316 5.246 5.246 0 0 1 2.387-.46c-.46.614-1.258.746-1.86 1.16q-2.546 1.747-5.117 3.46c-.55.366-1.145.67-1.719 1.001ZM237.155 95.234a2.367 2.367 0 0 1 .447-3.274c.579-.528.851-1.33 1.69-1.651.277-.106.31-.426.4-.706.515-1.613.533-1.608 2.524-1.696-.67.955-1.436 1.84-2.178 2.746a15.993 15.993 0 0 0-2.417 3.872 4.605 4.605 0 0 1-.466.709ZM263.744 73.202c.022-.423-.07-.921.369-1.18 2.238-1.32 4.29-2.933 6.775-3.862a4.598 4.598 0 0 1 1.12-.125 1.989 1.989 0 0 1-.401.509 82.656 82.656 0 0 1-7.863 4.658ZM271.983 61.97a1.11 1.11 0 0 1-.136 1.676c-.77.66-1.509 1.356-2.21 2.081a1.274 1.274 0 0 1-1.778.124 25.568 25.568 0 0 1 4.124-3.88ZM277.968 62.853c-.312-.519-.548-1.05-.06-1.585q1.101-1.204 2.235-2.38a1.431 1.431 0 0 1 1.044-.349 10.618 10.618 0 0 1-3.22 4.314ZM281.623 58.089a15.085 15.085 0 0 1 .16-2.336c.307-1.401.464-1.46 2.177-1.498-.886 1.22-1.228 2.735-2.337 3.834ZM235.794 98.717a3.16 3.16 0 0 0-.066-.406c-.528-1.793-.421-2.026 1.426-3.075a11.558 11.558 0 0 1-1.36 3.48ZM244.965 85.32a4.62 4.62 0 0 1-.001-.621c.125-.979.185-1.039 1.184-1.114.364-.027.732-.006 1.098-.006a4.362 4.362 0 0 1-2.28 1.74ZM244.482 80.964a6.317 6.317 0 0 1-2.304 2.17 2.843 2.843 0 0 1 2.304-2.17ZM261.455 74.492c.214-1.203.214-1.21 1.2-1.274.36-.024.722-.008 1.082-.01a7.188 7.188 0 0 1-2.282 1.284ZM258.242 76.224c.22-1.208.219-1.215 1.206-1.279.36-.023.723-.006 1.085-.008a7.863 7.863 0 0 1-2.291 1.287Z"></path>
  <path fill="#282828" d="M272.006 68.037c-.104-1.201.407-1.386 1.828-1.302-.347.76-1.158.943-1.828 1.302ZM248.169 82.732a.918.918 0 0 1 .895-.456.968.968 0 0 1-.895.456ZM234.398 93.498a.863.863 0 0 1-.45.874.9.9 0 0 1 .45-.874ZM273.834 66.734l.467-.43-.467.43ZM274.295 66.31l.468-.435q-.233.218-.468.435ZM267.865 65.855l-.47.435.47-.435ZM274.756 65.882l.468-.437-.468.437ZM275.216 65.453l.467-.44-.467.44ZM275.675 65.021l.467-.44-.467.44ZM276.134 64.59l.466-.44-.466.44ZM242.664 87.474l.464-.439-.464.439ZM277.05 63.725l.464-.441-.464.441ZM243.122 87.041l.465-.438ZM242.19 83.126l-.466.44.465-.44ZM272.447 61.533l-.462.443q.23-.222.462-.443ZM247.245 83.579l.47-.43-.47.43ZM243.58 86.61l.465-.438-.464.437ZM281.175 58.542l.444-.448ZM241.731 83.558l-.465.44.465-.44ZM242.208 87.91l.462-.443-.462.443ZM244.943 80.538l-.469.437.469-.437ZM244.5 85.749q.233-.22.467-.438l-.468.438ZM220.142 110.768l-.402-.43.402.43ZM241.274 83.991l-.464.441.464-.44ZM260.538 74.934l.502-.416-.502.416ZM244.04 86.178l.467-.437-.468.437ZM249.076 82.268l.464-.418ZM276.592 64.158l.466-.44-.466.44ZM247.708 83.156l.47-.435-.47.435ZM277.507 63.291l.46-.442-.46.442ZM348.995 174.254a62.66 62.66 0 0 1-1.936 7.927 5.213 5.213 0 0 1-1.235 2.491c-1.397-.362-1.99-1.516-2.56-2.554-1.339-2.434-3.073-4.716-3.56-7.514a.449.449 0 0 0-.209.014c-.062.03-.103.1-.154.154a6.435 6.435 0 0 1-.704-2.89c-.447-2.53-.793-5.08-1.046-7.634-.183-1.842-.714-3.656-.53-5.528.834-.217 1.075.439 1.312.904a57.987 57.987 0 0 0 10.622 14.63Z"></path>
  <path fill="#010000" d="M348.995 174.254a6.329 6.329 0 0 1-2.756-2.141c-1.126-1.422-2.4-2.729-3.438-4.23a71.11 71.11 0 0 1-4.551-7.382c-.329-.625-.5-1.362-1.19-1.78a39.228 39.228 0 0 1-.946-7.688c.228-.436-.07-.972.325-1.43.778 1.81 1.563 3.58 2.302 5.368a58.177 58.177 0 0 0 7.744 13.075c.997 1.302 1.9 2.783 3.466 3.646a.432.432 0 0 1-.11.405 1.556 1.556 0 0 0-.286.581 3.28 3.28 0 0 1-.56 1.576Z"></path>
  <path fill="#030202" d="M339.341 174.772c.145-.318-.026-.723.318-.996a40.805 40.805 0 0 0 6.165 10.896 2.93 2.93 0 0 1-1.398 1.683c-1.397.646-1.95-.393-2.66-1.162-.614-.665-.559-1.566-.978-2.295l-1.447-8.126Z"></path>
  <path fill="#2f3430" d="M340.788 182.898c.746.982 1.516 1.95 2.229 2.953.366.516.888.467 1.41.504a1.596 1.596 0 0 1-.064.358c-.376.042-.75.11-1.127.12a2.01 2.01 0 0 1-1.952-1.233 4.392 4.392 0 0 1-.496-2.702Z"></path>
  <path fill="#282828" d="M324.277 105.587a.525.525 0 0 1 .4.488.423.423 0 0 1-.4-.488Z"></path>
  <path fill="#eaab86" d="M183.978 199.19c-.346 2.049.375 4.332 1.03 6.602a15.524 15.524 0 0 1 .366 2.751c.222 2.065-.962 3.384-2.572 4.477a7.83 7.83 0 0 1-1.629.771 1.756 1.756 0 0 1-2.481-.838c-.792-2.127-2.264-3.876-3.364-5.826a21.872 21.872 0 0 1-1.336-3.417 1.905 1.905 0 0 1 .082-1.264 13.016 13.016 0 0 1 1.48-3.13c.323-.484.658-.963 1.02-1.421a5.882 5.882 0 0 0 1.455-4.399 7.192 7.192 0 0 1-.001-1.075c.05-1.215.43-1.396 1.754-1.13 2.933.59 3.954 2.746 4.182 4.957.088.853.014 1.72.014 2.942ZM173.888 176.386a2.587 2.587 0 0 1-.382 1.62 10.347 10.347 0 0 0-1.455 6.634c.045.573.009 1.15.006 1.726-.002.583-.011 1.173-.634 1.517a2.263 2.263 0 0 1-2.345-.258 5.512 5.512 0 0 1-2.008-2.567 7.347 7.347 0 0 1-.527-2.734 23.795 23.795 0 0 0 .007-2.588 6.864 6.864 0 0 1 3.072-5.952 2.416 2.416 0 0 1 3.271.225 3.13 3.13 0 0 1 .995 2.377ZM188.592 214.667a10.878 10.878 0 0 1-1.32 4.73c-.512 1.19-1.208 2.31-1.812 3.466a4.49 4.49 0 0 1-2.023 1.97 2.642 2.642 0 0 1-3.559-.862 4.082 4.082 0 0 1-.134-5.026 3.911 3.911 0 0 1 1.057-1.083 20.426 20.426 0 0 0 5.752-5.11 1 1 0 0 1 .992-.405 1.027 1.027 0 0 1 .93.826 11.973 11.973 0 0 1 .117 1.494ZM345.377 205.402a23.04 23.04 0 0 1 .54-4.623 52.161 52.161 0 0 1 1.284-6.287 15.477 15.477 0 0 1 .772-2.24 3.08 3.08 0 0 1 1.698-1.659 1.914 1.914 0 0 1 2.571.613 4.694 4.694 0 0 1 .727 4.102 29.512 29.512 0 0 1-1.86 4.825 11.206 11.206 0 0 0-.902 7.52 6.045 6.045 0 0 1-.286 4.001 3.521 3.521 0 0 1-.564.914 1.22 1.22 0 0 1-2.071-.125 10.057 10.057 0 0 1-1.38-3.613c-.302-1.245-.398-2.535-.53-3.428Z"></path>
  <path fill="#282828" d="M349.555 172.678a.484.484 0 0 1 .286-.581.484.484 0 0 1-.286.581Z"></path>
  <path fill="#f6f6f6" d="M320.071 336.666a25.287 25.287 0 0 0 .508-7.015 3.142 3.142 0 0 0-.025-.64c-.843-3.294-.101-6.516.568-9.722a28.912 28.912 0 0 0 .462-3.814c.7-.604.068-1.522.646-2.288a28.095 28.095 0 0 1 2.922 6.053c.197.538.276 1.116.49 1.647a14.401 14.401 0 0 1 .877 7.18 12.5 12.5 0 0 1-3.178 7 17.89 17.89 0 0 1-3.597 3.266l.024-.823c.154-.265.133-.585.303-.844Z"></path>
  <path fill="#ccc" d="M320.071 336.666a.788.788 0 0 1-.304.844.742.742 0 0 1 .304-.844Z"></path>
  <path fill="#fff" d="M248.147 235.19a14.905 14.905 0 0 1 5.218-2.094 39.664 39.664 0 0 1 13.583-1.327c2.425.2 4.826.653 7.24.98a31.635 31.635 0 0 0 9.115-.018c2.708-.417 5.406-.895 8.124-1.24a21.768 21.768 0 0 1 11.008 1.146 4.158 4.158 0 0 1 1.567.859 1.227 1.227 0 0 1 .14 1.756 6.804 6.804 0 0 1-1.342 1.151 18.694 18.694 0 0 1-4.27 2.052 40.69 40.69 0 0 1-12.734 2.345c-2.67.027-5.343.022-8.013-.037-5.111-.113-10.223-.225-15.33-.433a63.524 63.524 0 0 1-12.883-1.698c-.588-.147-1.16-.35-1.74-.526-1.057-1.084-.172-1.981.317-2.916Z"></path>
  <path fill="#efbc9f" d="m248.147 235.19-.317 2.916a7.437 7.437 0 0 1-1.245-.443c-1.163-.66-1.3-1.151-.042-1.72.538-.244 1.07-.502 1.604-.753Z"></path>
  <path fill="#e9ab86" d="M322.776 170.235a1.631 1.631 0 0 1-.84 2.037 9.52 9.52 0 0 0-2.222 2.088 13.587 13.587 0 0 1-6.252 3.75 23.624 23.624 0 0 1-8.78.192c-3.482-.43-6.217-2.177-8.95-3.974a15.354 15.354 0 0 1-3.383-3.732c-.2-.257-.152-.686-.22-1.035.09-.072.18-.144.268-.217 2.726.235 4.92 1.98 7.595 2.366a33.38 33.38 0 0 0 15.486 1.202 14.871 14.871 0 0 0 5.23-1.952 3.297 3.297 0 0 1 2.068-.725Z"></path>
  <path fill="#e9aa85" d="M291.729 160.464c1.063-.031 2.128-.11 3.19-.087 4.19.092 8.38.263 12.57.31 2.358.027 4.718-.156 7.078-.198q3.772-.068 7.546-.038a5.187 5.187 0 0 1 2.671.377l-9.612.057c-.915.005-1.83 0-2.738 0-.156.554.317.614.601.748a49.96 49.96 0 0 1 4.977 2.63 25.247 25.247 0 0 1 3.914 3.286 1.198 1.198 0 0 1 .397 1.176c-1.115.449-1.847-.362-2.626-.8a57.142 57.142 0 0 0-5.539-2.75c-5.012-2.346-10.17-3.052-15.551-1.236a9.218 9.218 0 0 0-3.74 1.62 18.095 18.095 0 0 0-2.68 1.993c-.52.64.228 1.23.083 1.853l-.14.155c-.834-.027-1.673-.01-2.501-.093a1.039 1.039 0 0 1-.921-1.573 9.617 9.617 0 0 1 3.015-3.704 18.912 18.912 0 0 1 4.007-2.411c.389-.145.874-.241 1.046-.894-1.226-.002-2.409-.002-3.591-.006-.528-.002-1.077.055-1.456-.415Z"></path>
  <path fill="#463a37" d="M314.598 164.845a33.861 33.861 0 0 1 6.353 3.173c.446.254.915.472 1.372.707l.034-.024a.807.807 0 0 1 .476.511l-.056 1.023a14.102 14.102 0 0 1-6.778 3.103.816.816 0 0 1-.243-.556 1.186 1.186 0 0 1 .264-.556c.928-.825 2.242-.862 3.3-1.427 1.46-.781 1.465-1.17.107-2.094-1.719-1.168-3.886-1.667-5.356-3.202-.046-.377.177-.562.527-.658Z"></path>
  <path fill="#e9aa85" d="M322.833 169.212a.697.697 0 0 1-.476-.51.567.567 0 0 1 .476.51Z"></path>
  <path fill="#eaab86" d="M231.424 182.935a31.763 31.763 0 0 1-10.514-1.883 7.347 7.347 0 0 1-1.21-.6 32.38 32.38 0 0 0-3.98-2.501 1.892 1.892 0 0 1-.518-.42 1.03 1.03 0 0 1-.2-1.54c1.168-1.589 2.317-3.196 3.598-4.702.57-.67 1.07-1.394 1.672-2.037a26.364 26.364 0 0 1 12.419-7.328 1.801 1.801 0 0 1 .437-.121c4.248-.04 8.491-.413 12.585 1.32a27.543 27.543 0 0 1 8.451 5.351 4.092 4.092 0 0 1 1.266 2.007c.1.426.102.928-.433 1.099-.896.285-1.194 1.067-1.702 1.671-.849 1.008-1.59 2.104-2.506 3.051a19.79 19.79 0 0 1-9.769 5.261 29.3 29.3 0 0 1-6.047.973c-1.346.045-2.674.546-3.55.4Z"></path>
  <path fill="#292828" d="m314.598 164.845-.495.457c-.328 2.398-.381 4.872-2.421 6.982a21.268 21.268 0 0 0 3.087.162 2.114 2.114 0 0 1 1.239.524 3.136 3.136 0 0 0-.01.368 8.085 8.085 0 0 1-1.316.324c-5.164.402-10.29.45-15.174-1.568-.196-.298.266-.629-.062-.92a5.438 5.438 0 0 1-.925-1.055 5.353 5.353 0 0 1-.819-4.232c.351-.746.104-1.596.446-2.345a18.862 18.862 0 0 1 12.917-.175 18.04 18.04 0 0 1 3.533 1.478Z"></path>
  <path fill="#4a3d39" d="M299.933 171.243c.24.133.282.269.034.446a5.667 5.667 0 0 0-.46.405 24.013 24.013 0 0 1-5.427-1.87c-.61-.26-1.207-.545-1.81-.819-.235-.248-.482-.487-.704-.744-.47-.547-.465-.55.176-1.308.638-.18.888.37 1.305.608a35.168 35.168 0 0 0 5.564 2.526c.384.339.917.449 1.322.756Z"></path>
  <path fill="#4e4645" d="M298.148 163.542c.437.7.836 1.4-.008 2.095-.378-.05-.166-1.332-1.084-.391a2.433 2.433 0 0 1-2.09.669c-.338-.117-.588-.29-.5-.683a7.917 7.917 0 0 1 3.682-1.69Z"></path>
  <path fill="#584d4a" d="m294.466 165.232.54.477c-.308 1.311-1.497 1.844-2.516 2.526q-.375-.44-.749-.882a8.375 8.375 0 0 1 2.725-2.12Z"></path>
  <path fill="#fcfdfd" d="M314.445 172.922h-3.616c.024-.178-.01-.353.067-.435a8.274 8.274 0 0 0 2.45-6.697c-.057-.56.402-.465.757-.488 1.57.83 3.152 1.64 4.705 2.495.969.533 1.896 1.134 2.94 1.764a4.822 4.822 0 0 1-2.36 1.714c-1.1.462-2.233.856-3.351 1.279-.47.356-1.099.1-1.592.368Z"></path>
  <path fill="#694544" d="M314.445 172.922a2.206 2.206 0 0 1 1.591-.368 1.947 1.947 0 0 0-.028.417l-1.563-.05Z"></path>
  <path fill="#292828" d="M243.105 176.397a25.056 25.056 0 0 1-13.7.39c-.102-.585.259-1.248-.334-1.755a6.8 6.8 0 0 1-.647-4.594c.39-.706-.012-1.435.056-2.151a29.97 29.97 0 0 1 10.567-2.228 16.556 16.556 0 0 1 4.951.497c.222.577-.613.848-.449 1.41a15.523 15.523 0 0 1-.083 7.276 3.243 3.243 0 0 1-.36 1.155Z"></path>
  <path fill="#493d3a" d="M229.816 175.155c.604.696.607.746.054 1.243-.15.135-.31.26-.464.39a40.14 40.14 0 0 1-7.99-2.832c-.992-.434-1.036-1.078-.219-1.846a11.563 11.563 0 0 1 1.242-.9c.417-.195.587.043.711.36.043.577-.583 1.365.354 1.671 2.087.682 3.978 1.957 6.312 1.914Z"></path>
  <path fill="#4f413e" d="M242.699 167.399c.045-.308.27-.422.56-.509a5.755 5.755 0 0 0 .74-.334 31.121 31.121 0 0 1 8.017 2.38 4.153 4.153 0 0 1 .798.408.619.619 0 0 1 .194.94 2.761 2.761 0 0 1-1.148 1.02 1.128 1.128 0 0 1-.74-.538c-.607-1.178-1.89-1.339-2.996-1.772-1.758-.688-3.721-.75-5.425-1.595Z"></path>
  <path fill="#493d39" d="m251.289 170.779.57.525a18.663 18.663 0 0 1-7.869 4.955 5.921 5.921 0 0 1-.885.138l-.386-.928c3.1-1.17 5.486-3.494 8.57-4.69Z"></path>
  <path fill="#4e413f" d="m222.96 171.64-.521-.43a17.218 17.218 0 0 1 6.041-2.923c.156.128.316.252.465.386.536.478.535.515.017 1.29a7.563 7.563 0 0 0-3.779 1.088c-.703.314-1.298 1.013-2.223.588Z"></path>
  <path fill="#f9fbfb" d="M292.49 168.235a1.262 1.262 0 0 1 .643-1.047q.938-.738 1.874-1.479c.814-.361 1.622-.737 2.445-1.08.595-.25.603-.231.654.587.008.14.022.28.034.421-.502 1.717.193 3.207.997 4.676.076.422-.086.63-.563.557a22.416 22.416 0 0 1-6.084-2.635Z"></path>
  <path fill="#e6e8e8" d="M308.656 168.14a1.816 1.816 0 0 1-1.687-1.704 1.849 1.849 0 0 1 1.817-1.587 1.792 1.792 0 0 1 1.679 1.71 1.813 1.813 0 0 1-1.809 1.582Z"></path>
  <path fill="#dbe0e0" d="M303.003 168.144a.659.659 0 0 1 .578.582.729.729 0 0 1-.809.81.68.68 0 0 1-.717-.69c-.007-.37.237-.677.948-.702Z"></path>
  <path fill="#b1b0b0" d="m298.574 170.87.563-.557a1.404 1.404 0 0 1 .797.93c-.496.013-1.008.079-1.36-.373Z"></path>
  <path fill="#fcfcfc" d="M251.289 170.779c-.866.666-1.742 1.32-2.595 2a17.104 17.104 0 0 1-5.306 2.68 2.232 2.232 0 0 1-.67.01 12.606 12.606 0 0 0-.02-8.07 3.891 3.891 0 0 1 2.219.127 41.36 41.36 0 0 1 6.178 2.005c.729.297.727.302.194 1.248Z"></path>
  <path fill="#fafbfb" d="M222.96 171.64c1.699-.792 3.39-1.599 5.1-2.367.622-.28.703-.193.902.69a6.634 6.634 0 0 0 .853 5.191c-.088.273.262.85-.4.734a34.575 34.575 0 0 1-7.644-3.015c.176-.6.868-.759 1.189-1.234Z"></path>
  <path fill="#f4f3f3" d="M239.416 170.397a1.738 1.738 0 0 1-1.723 1.676 1.79 1.79 0 0 1-1.71-1.471 1.72 1.72 0 0 1 3.433-.205Z"></path>
  <path fill="#cfd0d0" d="M233.877 172.87a.91.91 0 0 1 .89 1.006.863.863 0 0 1-.735.705.947.947 0 0 1-.996-.918.798.798 0 0 1 .84-.793Z"></path>
</svg>
